<svg xmlns="http://www.w3.org/2000/svg" xmlns:xlink="http://www.w3.org/1999/xlink" width="400" zoomAndPan="magnify" viewBox="0 0 300 74.999997" height="100" preserveAspectRatio="xMidYMid meet" version="1.0"><defs><g/><clipPath id="8a3132c146"><path d="M 26.535156 13.789062 L 66.285156 13.789062 L 66.285156 61.039062 L 26.535156 61.039062 Z M 26.535156 13.789062 " clip-rule="nonzero"/></clipPath></defs><path fill="#f0ead6" d="M 36.816406 49.351562 L 38.398438 49.351562 C 38.832031 49.351562 39.1875 48.996094 39.1875 48.5625 C 39.1875 48.125 38.832031 47.769531 38.398438 47.769531 L 36.816406 47.769531 C 36.382812 47.769531 36.027344 48.125 36.027344 48.5625 C 36.027344 48.996094 36.382812 49.351562 36.816406 49.351562 " fill-opacity="1" fill-rule="nonzero"/><path fill="#f0ead6" d="M 60.523438 47.769531 L 41.558594 47.769531 C 41.125 47.769531 40.769531 48.125 40.769531 48.5625 C 40.769531 48.996094 41.125 49.351562 41.558594 49.351562 L 60.523438 49.351562 C 60.960938 49.351562 61.3125 48.996094 61.3125 48.5625 C 61.3125 48.125 60.960938 47.769531 60.523438 47.769531 " fill-opacity="1" fill-rule="nonzero"/><path fill="#f0ead6" d="M 36.816406 44.609375 L 38.398438 44.609375 C 38.832031 44.609375 39.1875 44.253906 39.1875 43.820312 C 39.1875 43.382812 38.832031 43.027344 38.398438 43.027344 L 36.816406 43.027344 C 36.382812 43.027344 36.027344 43.382812 36.027344 43.820312 C 36.027344 44.253906 36.382812 44.609375 36.816406 44.609375 " fill-opacity="1" fill-rule="nonzero"/><path fill="#f0ead6" d="M 60.523438 43.027344 L 41.558594 43.027344 C 41.125 43.027344 40.769531 43.382812 40.769531 43.820312 C 40.769531 44.253906 41.125 44.609375 41.558594 44.609375 L 60.523438 44.609375 C 60.960938 44.609375 61.3125 44.253906 61.3125 43.820312 C 61.3125 43.382812 60.960938 43.027344 60.523438 43.027344 " fill-opacity="1" fill-rule="nonzero"/><path fill="#f0ead6" d="M 36.816406 39.867188 L 38.398438 39.867188 C 38.832031 39.867188 39.1875 39.511719 39.1875 39.078125 C 39.1875 38.644531 38.832031 38.289062 38.398438 38.289062 L 36.816406 38.289062 C 36.382812 38.289062 36.027344 38.644531 36.027344 39.078125 C 36.027344 39.511719 36.382812 39.867188 36.816406 39.867188 " fill-opacity="1" fill-rule="nonzero"/><path fill="#f0ead6" d="M 60.523438 38.289062 L 41.558594 38.289062 C 41.125 38.289062 40.769531 38.644531 40.769531 39.078125 C 40.769531 39.511719 41.125 39.867188 41.558594 39.867188 L 60.523438 39.867188 C 60.960938 39.867188 61.3125 39.511719 61.3125 39.078125 C 61.3125 38.644531 60.960938 38.289062 60.523438 38.289062 " fill-opacity="1" fill-rule="nonzero"/><path fill="#f0ead6" d="M 36.816406 35.125 L 38.398438 35.125 C 38.832031 35.125 39.1875 34.773438 39.1875 34.335938 C 39.1875 33.902344 38.832031 33.546875 38.398438 33.546875 L 36.816406 33.546875 C 36.382812 33.546875 36.027344 33.902344 36.027344 34.335938 C 36.027344 34.773438 36.382812 35.125 36.816406 35.125 " fill-opacity="1" fill-rule="nonzero"/><path fill="#f0ead6" d="M 60.523438 33.546875 L 41.558594 33.546875 C 41.125 33.546875 40.769531 33.902344 40.769531 34.335938 C 40.769531 34.773438 41.125 35.125 41.558594 35.125 L 60.523438 35.125 C 60.960938 35.125 61.3125 34.773438 61.3125 34.335938 C 61.3125 33.902344 60.960938 33.546875 60.523438 33.546875 " fill-opacity="1" fill-rule="nonzero"/><path fill="#f0ead6" d="M 36.816406 30.386719 L 38.398438 30.386719 C 38.832031 30.386719 39.1875 30.03125 39.1875 29.59375 C 39.1875 29.160156 38.832031 28.804688 38.398438 28.804688 L 36.816406 28.804688 C 36.382812 28.804688 36.027344 29.160156 36.027344 29.59375 C 36.027344 30.03125 36.382812 30.386719 36.816406 30.386719 " fill-opacity="1" fill-rule="nonzero"/><path fill="#f0ead6" d="M 40.769531 29.59375 C 40.769531 30.03125 41.125 30.386719 41.558594 30.386719 L 60.523438 30.386719 C 60.960938 30.386719 61.3125 30.03125 61.3125 29.59375 C 61.3125 29.160156 60.960938 28.804688 60.523438 28.804688 L 41.558594 28.804688 C 41.125 28.804688 40.769531 29.160156 40.769531 29.59375 " fill-opacity="1" fill-rule="nonzero"/><g clip-path="url(#8a3132c146)"><path fill="#f0ead6" d="M 28.125 18.53125 L 31.285156 18.53125 L 31.285156 55.671875 C 31.285156 56.109375 31.640625 56.464844 32.074219 56.464844 L 59.734375 56.464844 L 59.734375 59.625 L 28.125 59.625 Z M 32.867188 15.371094 L 53.410156 15.371094 L 53.410156 25.644531 C 53.410156 26.078125 53.765625 26.433594 54.203125 26.433594 L 64.476562 26.433594 L 64.476562 54.882812 L 32.867188 54.882812 Z M 63.359375 24.855469 L 54.992188 24.855469 L 54.992188 16.488281 Z M 27.335938 61.203125 L 60.523438 61.203125 C 60.960938 61.203125 61.3125 60.851562 61.3125 60.414062 L 61.3125 56.464844 L 65.265625 56.464844 C 65.699219 56.464844 66.054688 56.109375 66.054688 55.671875 L 66.054688 25.644531 C 66.054688 25.625 66.046875 25.609375 66.046875 25.59375 C 66.039062 25.523438 66.027344 25.457031 66.007812 25.390625 C 65.996094 25.367188 65.992188 25.339844 65.980469 25.316406 C 65.941406 25.234375 65.890625 25.152344 65.824219 25.085938 L 54.761719 14.023438 C 54.691406 13.953125 54.613281 13.90625 54.53125 13.867188 C 54.503906 13.855469 54.480469 13.847656 54.457031 13.839844 C 54.386719 13.816406 54.324219 13.804688 54.25 13.800781 C 54.234375 13.800781 54.21875 13.789062 54.203125 13.789062 L 32.074219 13.789062 C 31.640625 13.789062 31.285156 14.144531 31.285156 14.582031 L 31.285156 16.953125 L 27.335938 16.953125 C 26.898438 16.953125 26.542969 17.304688 26.542969 17.742188 L 26.542969 60.414062 C 26.542969 60.851562 26.898438 61.203125 27.335938 61.203125 " fill-opacity="1" fill-rule="nonzero"/></g><path fill="#f0ead6" d="M 37.605469 22.484375 L 40.769531 22.484375 L 40.769531 25.644531 L 37.605469 25.644531 Z M 36.816406 27.222656 L 41.558594 27.222656 C 41.992188 27.222656 42.347656 26.871094 42.347656 26.433594 L 42.347656 21.691406 C 42.347656 21.257812 41.992188 20.902344 41.558594 20.902344 L 36.816406 20.902344 C 36.382812 20.902344 36.027344 21.257812 36.027344 21.691406 L 36.027344 26.433594 C 36.027344 26.871094 36.382812 27.222656 36.816406 27.222656 " fill-opacity="1" fill-rule="nonzero"/><g fill="#f0ead6" fill-opacity="1"><g transform="translate(72.024808, 35.195996)"><g><path d="M 5.015625 -15.859375 C 5.015625 -15.097656 5.203125 -14.425781 5.578125 -13.84375 C 5.953125 -13.269531 6.414062 -12.769531 6.96875 -12.34375 C 7.53125 -11.914062 8.289062 -11.40625 9.25 -10.8125 C 10.289062 -10.164062 11.109375 -9.609375 11.703125 -9.140625 C 12.304688 -8.671875 12.816406 -8.09375 13.234375 -7.40625 C 13.660156 -6.726562 13.875 -5.929688 13.875 -5.015625 C 13.875 -3.972656 13.601562 -3.046875 13.0625 -2.234375 C 12.519531 -1.421875 11.753906 -0.785156 10.765625 -0.328125 C 9.773438 0.128906 8.648438 0.359375 7.390625 0.359375 C 6.535156 0.359375 5.65625 0.242188 4.75 0.015625 C 3.84375 -0.203125 3.15625 -0.472656 2.6875 -0.796875 C 2.5 -0.921875 2.394531 -1.113281 2.375 -1.375 L 2.203125 -6.015625 L 2.203125 -6.046875 C 2.203125 -6.128906 2.25 -6.175781 2.34375 -6.1875 C 2.445312 -6.195312 2.507812 -6.160156 2.53125 -6.078125 C 3.207031 -4.390625 3.976562 -3.003906 4.84375 -1.921875 C 5.707031 -0.847656 6.8125 -0.3125 8.15625 -0.3125 C 9.03125 -0.3125 9.757812 -0.546875 10.34375 -1.015625 C 10.9375 -1.492188 11.234375 -2.296875 11.234375 -3.421875 C 11.234375 -4.316406 11.035156 -5.097656 10.640625 -5.765625 C 10.242188 -6.441406 9.753906 -7.003906 9.171875 -7.453125 C 8.597656 -7.898438 7.8125 -8.453125 6.8125 -9.109375 C 5.832031 -9.734375 5.066406 -10.265625 4.515625 -10.703125 C 3.972656 -11.140625 3.503906 -11.675781 3.109375 -12.3125 C 2.722656 -12.957031 2.53125 -13.710938 2.53125 -14.578125 C 2.53125 -15.628906 2.828125 -16.519531 3.421875 -17.25 C 4.015625 -17.988281 4.78125 -18.535156 5.71875 -18.890625 C 6.664062 -19.242188 7.660156 -19.421875 8.703125 -19.421875 C 9.398438 -19.421875 10.09375 -19.351562 10.78125 -19.21875 C 11.476562 -19.09375 12.0625 -18.925781 12.53125 -18.71875 C 12.832031 -18.601562 12.984375 -18.410156 12.984375 -18.140625 L 13.078125 -13.984375 C 13.078125 -13.929688 13.019531 -13.894531 12.90625 -13.875 C 12.789062 -13.851562 12.722656 -13.867188 12.703125 -13.921875 C 12.296875 -15.171875 11.75 -16.296875 11.0625 -17.296875 C 10.382812 -18.304688 9.363281 -18.8125 8 -18.8125 C 7.082031 -18.8125 6.351562 -18.546875 5.8125 -18.015625 C 5.28125 -17.492188 5.015625 -16.773438 5.015625 -15.859375 Z M 5.015625 -15.859375 "/></g></g></g><g fill="#f0ead6" fill-opacity="1"><g transform="translate(87.508125, 35.195996)"><g><path d="M 7.171875 0.390625 C 5.953125 0.390625 4.875 0.101562 3.9375 -0.46875 C 3 -1.050781 2.273438 -1.835938 1.765625 -2.828125 C 1.265625 -3.816406 1.015625 -4.890625 1.015625 -6.046875 C 1.015625 -7.367188 1.34375 -8.492188 2 -9.421875 C 2.664062 -10.347656 3.507812 -11.039062 4.53125 -11.5 C 5.5625 -11.957031 6.617188 -12.1875 7.703125 -12.1875 C 8.941406 -12.1875 10.023438 -11.890625 10.953125 -11.296875 C 11.878906 -10.710938 12.585938 -9.9375 13.078125 -8.96875 C 13.566406 -8 13.8125 -6.960938 13.8125 -5.859375 C 13.8125 -4.640625 13.507812 -3.550781 12.90625 -2.59375 C 12.300781 -1.632812 11.488281 -0.894531 10.46875 -0.375 C 9.457031 0.132812 8.359375 0.390625 7.171875 0.390625 Z M 8.09375 -0.21875 C 8.988281 -0.21875 9.675781 -0.613281 10.15625 -1.40625 C 10.632812 -2.195312 10.875 -3.359375 10.875 -4.890625 C 10.875 -6.253906 10.6875 -7.441406 10.3125 -8.453125 C 9.9375 -9.472656 9.425781 -10.25 8.78125 -10.78125 C 8.132812 -11.3125 7.4375 -11.578125 6.6875 -11.578125 C 5.769531 -11.578125 5.078125 -11.195312 4.609375 -10.4375 C 4.140625 -9.6875 3.90625 -8.582031 3.90625 -7.125 C 3.90625 -5.789062 4.082031 -4.597656 4.4375 -3.546875 C 4.800781 -2.503906 5.300781 -1.6875 5.9375 -1.09375 C 6.582031 -0.507812 7.300781 -0.21875 8.09375 -0.21875 Z M 8.09375 -0.21875 "/></g></g></g><g fill="#f0ead6" fill-opacity="1"><g transform="translate(102.350127, 35.195996)"><g><path d="M 13.625 -11.796875 C 13.664062 -11.796875 13.6875 -11.734375 13.6875 -11.609375 C 13.6875 -11.484375 13.664062 -11.421875 13.625 -11.421875 C 13.050781 -11.421875 12.554688 -11.21875 12.140625 -10.8125 C 11.722656 -10.40625 11.320312 -9.753906 10.9375 -8.859375 L 7.140625 0 C 7.109375 0.101562 7.007812 0.15625 6.84375 0.15625 C 6.65625 0.15625 6.53125 0.101562 6.46875 0 L 1.953125 -9.25 C 1.523438 -10.144531 1.15625 -10.726562 0.84375 -11 C 0.539062 -11.28125 0.164062 -11.421875 -0.28125 -11.421875 C -0.332031 -11.421875 -0.359375 -11.484375 -0.359375 -11.609375 C -0.359375 -11.734375 -0.332031 -11.796875 -0.28125 -11.796875 C 0.09375 -11.796875 0.390625 -11.785156 0.609375 -11.765625 L 2.375 -11.734375 L 4.640625 -11.765625 C 4.960938 -11.785156 5.410156 -11.796875 5.984375 -11.796875 C 6.046875 -11.796875 6.078125 -11.734375 6.078125 -11.609375 C 6.078125 -11.484375 6.046875 -11.421875 5.984375 -11.421875 C 4.785156 -11.421875 4.1875 -11.1875 4.1875 -10.71875 C 4.1875 -10.59375 4.238281 -10.429688 4.34375 -10.234375 L 7.84375 -3.296875 L 10.171875 -8.921875 C 10.316406 -9.265625 10.390625 -9.597656 10.390625 -9.921875 C 10.390625 -10.410156 10.207031 -10.78125 9.84375 -11.03125 C 9.488281 -11.289062 8.96875 -11.421875 8.28125 -11.421875 C 8.238281 -11.421875 8.21875 -11.484375 8.21875 -11.609375 C 8.21875 -11.734375 8.238281 -11.796875 8.28125 -11.796875 C 8.832031 -11.796875 9.25 -11.785156 9.53125 -11.765625 L 11.359375 -11.734375 L 12.5625 -11.765625 C 12.78125 -11.785156 13.132812 -11.796875 13.625 -11.796875 Z M 13.625 -11.796875 "/></g></g></g><g fill="#f0ead6" fill-opacity="1"><g transform="translate(115.726255, 35.195996)"><g><path d="M 11.578125 -1.921875 C 11.617188 -1.921875 11.664062 -1.878906 11.71875 -1.796875 C 11.769531 -1.722656 11.773438 -1.664062 11.734375 -1.625 C 10.972656 -0.925781 10.21875 -0.421875 9.46875 -0.109375 C 8.71875 0.203125 7.90625 0.359375 7.03125 0.359375 C 5.78125 0.359375 4.703125 0.0859375 3.796875 -0.453125 C 2.890625 -1.003906 2.195312 -1.726562 1.71875 -2.625 C 1.25 -3.519531 1.015625 -4.488281 1.015625 -5.53125 C 1.015625 -6.726562 1.304688 -7.828125 1.890625 -8.828125 C 2.484375 -9.828125 3.289062 -10.613281 4.3125 -11.1875 C 5.34375 -11.769531 6.492188 -12.0625 7.765625 -12.0625 C 8.984375 -12.0625 9.925781 -11.765625 10.59375 -11.171875 C 11.269531 -10.585938 11.609375 -9.710938 11.609375 -8.546875 C 11.609375 -7.960938 11.484375 -7.671875 11.234375 -7.671875 L 3.78125 -7.640625 C 3.757812 -7.453125 3.75 -7.175781 3.75 -6.8125 C 3.75 -5.019531 4.160156 -3.597656 4.984375 -2.546875 C 5.816406 -1.503906 6.992188 -0.984375 8.515625 -0.984375 C 9.085938 -0.984375 9.566406 -1.046875 9.953125 -1.171875 C 10.335938 -1.304688 10.859375 -1.546875 11.515625 -1.890625 Z M 6.65625 -11.453125 C 5.90625 -11.453125 5.289062 -11.160156 4.8125 -10.578125 C 4.332031 -10.003906 4.007812 -9.207031 3.84375 -8.1875 L 8.734375 -8.28125 C 8.691406 -10.394531 8 -11.453125 6.65625 -11.453125 Z M 6.65625 -11.453125 "/></g></g></g><g fill="#f0ead6" fill-opacity="1"><g transform="translate(128.399979, 35.195996)"><g><path d="M 8.890625 -12.09375 C 9.359375 -12.09375 9.804688 -11.941406 10.234375 -11.640625 C 10.660156 -11.335938 10.875 -10.96875 10.875 -10.53125 C 10.875 -10.144531 10.753906 -9.828125 10.515625 -9.578125 C 10.285156 -9.335938 9.96875 -9.21875 9.5625 -9.21875 C 9.300781 -9.21875 9.082031 -9.273438 8.90625 -9.390625 C 8.726562 -9.503906 8.550781 -9.660156 8.375 -9.859375 C 8.1875 -10.046875 8.019531 -10.1875 7.875 -10.28125 C 7.738281 -10.375 7.566406 -10.421875 7.359375 -10.421875 C 7.140625 -10.421875 6.898438 -10.332031 6.640625 -10.15625 C 6.390625 -9.976562 6 -9.617188 5.46875 -9.078125 L 5.46875 -2.46875 C 5.46875 -1.90625 5.546875 -1.472656 5.703125 -1.171875 C 5.867188 -0.878906 6.144531 -0.671875 6.53125 -0.546875 C 6.925781 -0.421875 7.5 -0.359375 8.25 -0.359375 C 8.332031 -0.359375 8.375 -0.296875 8.375 -0.171875 C 8.375 -0.0546875 8.332031 0 8.25 0 C 7.570312 0 7.03125 -0.0078125 6.625 -0.03125 L 4.21875 -0.0625 L 2.4375 -0.03125 C 2.15625 -0.0078125 1.757812 0 1.25 0 C 1.1875 0 1.15625 -0.0546875 1.15625 -0.171875 C 1.15625 -0.296875 1.1875 -0.359375 1.25 -0.359375 C 1.945312 -0.359375 2.40625 -0.5 2.625 -0.78125 C 2.851562 -1.070312 2.96875 -1.632812 2.96875 -2.46875 L 2.96875 -8.3125 C 2.96875 -8.957031 2.890625 -9.429688 2.734375 -9.734375 C 2.578125 -10.046875 2.328125 -10.203125 1.984375 -10.203125 C 1.679688 -10.203125 1.171875 -10.050781 0.453125 -9.75 L 0.421875 -9.75 C 0.347656 -9.75 0.289062 -9.796875 0.25 -9.890625 C 0.207031 -9.992188 0.21875 -10.054688 0.28125 -10.078125 L 4.28125 -12.03125 C 4.394531 -12.070312 4.460938 -12.09375 4.484375 -12.09375 C 4.691406 -12.09375 4.894531 -11.875 5.09375 -11.4375 C 5.300781 -11 5.425781 -10.425781 5.46875 -9.71875 C 6.257812 -10.613281 6.921875 -11.234375 7.453125 -11.578125 C 7.984375 -11.921875 8.460938 -12.09375 8.890625 -12.09375 Z M 8.890625 -12.09375 "/></g></g></g><g fill="#f0ead6" fill-opacity="1"><g transform="translate(139.821605, 35.195996)"><g><path d="M 11.578125 -1.921875 C 11.617188 -1.921875 11.664062 -1.878906 11.71875 -1.796875 C 11.769531 -1.722656 11.773438 -1.664062 11.734375 -1.625 C 10.972656 -0.925781 10.21875 -0.421875 9.46875 -0.109375 C 8.71875 0.203125 7.90625 0.359375 7.03125 0.359375 C 5.78125 0.359375 4.703125 0.0859375 3.796875 -0.453125 C 2.890625 -1.003906 2.195312 -1.726562 1.71875 -2.625 C 1.25 -3.519531 1.015625 -4.488281 1.015625 -5.53125 C 1.015625 -6.726562 1.304688 -7.828125 1.890625 -8.828125 C 2.484375 -9.828125 3.289062 -10.613281 4.3125 -11.1875 C 5.34375 -11.769531 6.492188 -12.0625 7.765625 -12.0625 C 8.984375 -12.0625 9.925781 -11.765625 10.59375 -11.171875 C 11.269531 -10.585938 11.609375 -9.710938 11.609375 -8.546875 C 11.609375 -7.960938 11.484375 -7.671875 11.234375 -7.671875 L 3.78125 -7.640625 C 3.757812 -7.453125 3.75 -7.175781 3.75 -6.8125 C 3.75 -5.019531 4.160156 -3.597656 4.984375 -2.546875 C 5.816406 -1.503906 6.992188 -0.984375 8.515625 -0.984375 C 9.085938 -0.984375 9.566406 -1.046875 9.953125 -1.171875 C 10.335938 -1.304688 10.859375 -1.546875 11.515625 -1.890625 Z M 6.65625 -11.453125 C 5.90625 -11.453125 5.289062 -11.160156 4.8125 -10.578125 C 4.332031 -10.003906 4.007812 -9.207031 3.84375 -8.1875 L 8.734375 -8.28125 C 8.691406 -10.394531 8 -11.453125 6.65625 -11.453125 Z M 6.65625 -11.453125 "/></g></g></g><g fill="#f0ead6" fill-opacity="1"><g transform="translate(152.495329, 35.195996)"><g><path d="M 4.15625 -15.296875 C 3.625 -15.296875 3.207031 -15.4375 2.90625 -15.71875 C 2.613281 -16.007812 2.46875 -16.421875 2.46875 -16.953125 C 2.46875 -17.460938 2.613281 -17.851562 2.90625 -18.125 C 3.207031 -18.40625 3.625 -18.546875 4.15625 -18.546875 C 4.664062 -18.546875 5.0625 -18.40625 5.34375 -18.125 C 5.625 -17.851562 5.765625 -17.460938 5.765625 -16.953125 C 5.765625 -16.421875 5.628906 -16.007812 5.359375 -15.71875 C 5.085938 -15.4375 4.6875 -15.296875 4.15625 -15.296875 Z M 1.34375 0 C 1.28125 0 1.25 -0.0546875 1.25 -0.171875 C 1.25 -0.296875 1.28125 -0.359375 1.34375 -0.359375 C 2.03125 -0.359375 2.488281 -0.5 2.71875 -0.78125 C 2.945312 -1.070312 3.0625 -1.632812 3.0625 -2.46875 L 3.0625 -8.03125 C 3.0625 -8.726562 2.988281 -9.234375 2.84375 -9.546875 C 2.695312 -9.859375 2.453125 -10.015625 2.109375 -10.015625 C 1.804688 -10.015625 1.410156 -9.894531 0.921875 -9.65625 L 0.890625 -9.65625 C 0.804688 -9.65625 0.742188 -9.703125 0.703125 -9.796875 C 0.660156 -9.898438 0.671875 -9.972656 0.734375 -10.015625 L 5.125 -12.0625 L 5.21875 -12.09375 C 5.300781 -12.09375 5.390625 -12.046875 5.484375 -11.953125 C 5.578125 -11.867188 5.625 -11.796875 5.625 -11.734375 L 5.625 -11.09375 C 5.582031 -10.238281 5.5625 -9.226562 5.5625 -8.0625 L 5.5625 -2.46875 C 5.5625 -1.632812 5.675781 -1.070312 5.90625 -0.78125 C 6.144531 -0.5 6.609375 -0.359375 7.296875 -0.359375 C 7.359375 -0.359375 7.390625 -0.296875 7.390625 -0.171875 C 7.390625 -0.0546875 7.359375 0 7.296875 0 C 6.785156 0 6.378906 -0.0078125 6.078125 -0.03125 L 4.3125 -0.0625 L 2.53125 -0.03125 C 2.25 -0.0078125 1.851562 0 1.34375 0 Z M 1.34375 0 "/></g></g></g><g fill="#f0ead6" fill-opacity="1"><g transform="translate(160.618722, 35.195996)"><g><path d="M 7.671875 -1.0625 C 8.828125 -1.039062 9.769531 -0.976562 10.5 -0.875 C 11.238281 -0.78125 11.878906 -0.5 12.421875 -0.03125 C 12.960938 0.4375 13.234375 1.171875 13.234375 2.171875 C 13.234375 3.285156 12.875 4.335938 12.15625 5.328125 C 11.445312 6.316406 10.5 7.101562 9.3125 7.6875 C 8.132812 8.28125 6.875 8.578125 5.53125 8.578125 C 4.125 8.578125 2.988281 8.257812 2.125 7.625 C 1.257812 7 0.828125 6.175781 0.828125 5.15625 C 0.828125 3.71875 1.863281 2.304688 3.9375 0.921875 C 2.4375 0.628906 1.6875 -0.09375 1.6875 -1.25 C 1.6875 -1.882812 1.863281 -2.460938 2.21875 -2.984375 C 2.570312 -3.515625 3.113281 -4.035156 3.84375 -4.546875 C 3.09375 -4.898438 2.507812 -5.398438 2.09375 -6.046875 C 1.675781 -6.703125 1.46875 -7.394531 1.46875 -8.125 C 1.46875 -8.914062 1.710938 -9.609375 2.203125 -10.203125 C 2.691406 -10.796875 3.328125 -11.242188 4.109375 -11.546875 C 4.890625 -11.847656 5.726562 -12 6.625 -12 C 7.925781 -12 9.003906 -11.675781 9.859375 -11.03125 C 10.410156 -11.375 10.953125 -11.628906 11.484375 -11.796875 C 12.015625 -11.972656 12.585938 -12.0625 13.203125 -12.0625 C 13.335938 -12.0625 13.40625 -11.796875 13.40625 -11.265625 C 13.40625 -10.984375 13.367188 -10.6875 13.296875 -10.375 C 13.234375 -10.070312 13.160156 -9.953125 13.078125 -10.015625 C 12.222656 -10.347656 11.488281 -10.515625 10.875 -10.515625 C 10.6875 -10.515625 10.554688 -10.503906 10.484375 -10.484375 C 11.066406 -9.828125 11.359375 -9.050781 11.359375 -8.15625 C 11.359375 -7.382812 11.113281 -6.679688 10.625 -6.046875 C 10.132812 -5.410156 9.492188 -4.921875 8.703125 -4.578125 C 7.910156 -4.234375 7.066406 -4.0625 6.171875 -4.0625 C 5.492188 -4.0625 4.882812 -4.15625 4.34375 -4.34375 C 3.894531 -3.914062 3.671875 -3.40625 3.671875 -2.8125 C 3.671875 -2.070312 3.96875 -1.597656 4.5625 -1.390625 C 5.164062 -1.191406 6.203125 -1.082031 7.671875 -1.0625 Z M 5.71875 -11.453125 C 4.613281 -11.453125 4.0625 -10.628906 4.0625 -8.984375 C 4.0625 -8.128906 4.195312 -7.363281 4.46875 -6.6875 C 4.75 -6.019531 5.109375 -5.5 5.546875 -5.125 C 5.984375 -4.757812 6.4375 -4.578125 6.90625 -4.578125 C 7.4375 -4.578125 7.875 -4.804688 8.21875 -5.265625 C 8.5625 -5.722656 8.734375 -6.421875 8.734375 -7.359375 C 8.734375 -8.210938 8.582031 -8.953125 8.28125 -9.578125 C 7.988281 -10.203125 7.613281 -10.671875 7.15625 -10.984375 C 6.695312 -11.296875 6.21875 -11.453125 5.71875 -11.453125 Z M 7.171875 7.640625 C 8.335938 7.640625 9.269531 7.296875 9.96875 6.609375 C 10.675781 5.929688 11.03125 5.007812 11.03125 3.84375 C 11.03125 2.988281 10.835938 2.367188 10.453125 1.984375 C 10.078125 1.597656 9.578125 1.351562 8.953125 1.25 C 8.335938 1.144531 7.460938 1.09375 6.328125 1.09375 C 5.753906 1.09375 5.203125 1.066406 4.671875 1.015625 C 3.710938 1.703125 3.234375 2.613281 3.234375 3.75 C 3.234375 4.976562 3.601562 5.929688 4.34375 6.609375 C 5.09375 7.296875 6.035156 7.640625 7.171875 7.640625 Z M 7.171875 7.640625 "/></g></g></g><g fill="#f0ead6" fill-opacity="1"><g transform="translate(174.33078, 35.195996)"><g><path d="M 15.390625 -0.359375 C 15.453125 -0.359375 15.484375 -0.296875 15.484375 -0.171875 C 15.484375 -0.0546875 15.453125 0 15.390625 0 C 14.878906 0 14.484375 -0.0078125 14.203125 -0.03125 L 12.4375 -0.0625 L 10.6875 -0.03125 C 10.382812 -0.0078125 9.976562 0 9.46875 0 C 9.40625 0 9.375 -0.0546875 9.375 -0.171875 C 9.375 -0.296875 9.40625 -0.359375 9.46875 -0.359375 C 10.164062 -0.359375 10.625 -0.5 10.84375 -0.78125 C 11.070312 -1.070312 11.1875 -1.632812 11.1875 -2.46875 L 11.1875 -7.0625 C 11.1875 -8.195312 10.972656 -9.035156 10.546875 -9.578125 C 10.128906 -10.117188 9.472656 -10.390625 8.578125 -10.390625 C 8.054688 -10.390625 7.519531 -10.265625 6.96875 -10.015625 C 6.414062 -9.773438 5.914062 -9.453125 5.46875 -9.046875 L 5.46875 -2.46875 C 5.46875 -1.632812 5.578125 -1.070312 5.796875 -0.78125 C 6.023438 -0.5 6.484375 -0.359375 7.171875 -0.359375 C 7.234375 -0.359375 7.265625 -0.296875 7.265625 -0.171875 C 7.265625 -0.0546875 7.234375 0 7.171875 0 C 6.671875 0 6.273438 -0.0078125 5.984375 -0.03125 L 4.21875 -0.0625 L 2.4375 -0.03125 C 2.15625 -0.0078125 1.757812 0 1.25 0 C 1.1875 0 1.15625 -0.0546875 1.15625 -0.171875 C 1.15625 -0.296875 1.1875 -0.359375 1.25 -0.359375 C 1.945312 -0.359375 2.40625 -0.5 2.625 -0.78125 C 2.851562 -1.070312 2.96875 -1.632812 2.96875 -2.46875 L 2.96875 -8.3125 C 2.96875 -8.957031 2.890625 -9.429688 2.734375 -9.734375 C 2.578125 -10.046875 2.328125 -10.203125 1.984375 -10.203125 C 1.679688 -10.203125 1.171875 -10.050781 0.453125 -9.75 L 0.421875 -9.75 C 0.347656 -9.75 0.289062 -9.796875 0.25 -9.890625 C 0.207031 -9.992188 0.21875 -10.054688 0.28125 -10.078125 L 4.28125 -12.03125 C 4.394531 -12.070312 4.460938 -12.09375 4.484375 -12.09375 C 4.691406 -12.09375 4.898438 -11.863281 5.109375 -11.40625 C 5.328125 -10.945312 5.445312 -10.351562 5.46875 -9.625 C 6.894531 -11.3125 8.441406 -12.15625 10.109375 -12.15625 C 11.234375 -12.15625 12.109375 -11.8125 12.734375 -11.125 C 13.367188 -10.445312 13.6875 -9.53125 13.6875 -8.375 L 13.6875 -2.46875 C 13.6875 -1.632812 13.796875 -1.070312 14.015625 -0.78125 C 14.242188 -0.5 14.703125 -0.359375 15.390625 -0.359375 Z M 15.390625 -0.359375 "/></g></g></g><g fill="#f0ead6" fill-opacity="1"><g transform="translate(190.302725, 35.195996)"><g/></g></g><g fill="#f0ead6" fill-opacity="1"><g transform="translate(197.448873, 35.195996)"><g><path d="M 6.234375 -2.59375 C 6.234375 -2.039062 6.273438 -1.640625 6.359375 -1.390625 C 6.453125 -1.148438 6.628906 -0.988281 6.890625 -0.90625 C 7.160156 -0.832031 7.59375 -0.796875 8.1875 -0.796875 L 10.015625 -0.796875 C 11.460938 -0.796875 12.6875 -1.195312 13.6875 -2 C 14.6875 -2.800781 15.347656 -3.882812 15.671875 -5.25 C 15.691406 -5.3125 15.75 -5.335938 15.84375 -5.328125 C 15.945312 -5.316406 16 -5.28125 16 -5.21875 C 15.820312 -3.3125 15.734375 -1.722656 15.734375 -0.453125 C 15.734375 -0.296875 15.703125 -0.179688 15.640625 -0.109375 C 15.578125 -0.0351562 15.457031 0 15.28125 0 L 0.984375 0 C 0.941406 0 0.921875 -0.0546875 0.921875 -0.171875 C 0.921875 -0.296875 0.941406 -0.359375 0.984375 -0.359375 C 1.671875 -0.359375 2.171875 -0.410156 2.484375 -0.515625 C 2.804688 -0.617188 3.019531 -0.816406 3.125 -1.109375 C 3.238281 -1.410156 3.296875 -1.863281 3.296875 -2.46875 L 3.296875 -16.625 C 3.296875 -17.226562 3.238281 -17.671875 3.125 -17.953125 C 3.019531 -18.242188 2.800781 -18.441406 2.46875 -18.546875 C 2.144531 -18.660156 1.648438 -18.71875 0.984375 -18.71875 C 0.941406 -18.71875 0.921875 -18.78125 0.921875 -18.90625 C 0.921875 -19.03125 0.941406 -19.09375 0.984375 -19.09375 L 2.53125 -19.0625 C 3.425781 -19.019531 4.160156 -19 4.734375 -19 C 5.347656 -19 6.101562 -19.019531 7 -19.0625 L 8.515625 -19.09375 C 8.578125 -19.09375 8.609375 -19.03125 8.609375 -18.90625 C 8.609375 -18.78125 8.578125 -18.71875 8.515625 -18.71875 C 7.847656 -18.71875 7.351562 -18.660156 7.03125 -18.546875 C 6.71875 -18.441406 6.503906 -18.238281 6.390625 -17.9375 C 6.285156 -17.644531 6.234375 -17.195312 6.234375 -16.59375 Z M 6.234375 -2.59375 "/></g></g></g><g fill="#f0ead6" fill-opacity="1"><g transform="translate(213.970524, 35.195996)"><g><path d="M 11.578125 -1.921875 C 11.617188 -1.921875 11.664062 -1.878906 11.71875 -1.796875 C 11.769531 -1.722656 11.773438 -1.664062 11.734375 -1.625 C 10.972656 -0.925781 10.21875 -0.421875 9.46875 -0.109375 C 8.71875 0.203125 7.90625 0.359375 7.03125 0.359375 C 5.78125 0.359375 4.703125 0.0859375 3.796875 -0.453125 C 2.890625 -1.003906 2.195312 -1.726562 1.71875 -2.625 C 1.25 -3.519531 1.015625 -4.488281 1.015625 -5.53125 C 1.015625 -6.726562 1.304688 -7.828125 1.890625 -8.828125 C 2.484375 -9.828125 3.289062 -10.613281 4.3125 -11.1875 C 5.34375 -11.769531 6.492188 -12.0625 7.765625 -12.0625 C 8.984375 -12.0625 9.925781 -11.765625 10.59375 -11.171875 C 11.269531 -10.585938 11.609375 -9.710938 11.609375 -8.546875 C 11.609375 -7.960938 11.484375 -7.671875 11.234375 -7.671875 L 3.78125 -7.640625 C 3.757812 -7.453125 3.75 -7.175781 3.75 -6.8125 C 3.75 -5.019531 4.160156 -3.597656 4.984375 -2.546875 C 5.816406 -1.503906 6.992188 -0.984375 8.515625 -0.984375 C 9.085938 -0.984375 9.566406 -1.046875 9.953125 -1.171875 C 10.335938 -1.304688 10.859375 -1.546875 11.515625 -1.890625 Z M 6.65625 -11.453125 C 5.90625 -11.453125 5.289062 -11.160156 4.8125 -10.578125 C 4.332031 -10.003906 4.007812 -9.207031 3.84375 -8.1875 L 8.734375 -8.28125 C 8.691406 -10.394531 8 -11.453125 6.65625 -11.453125 Z M 6.65625 -11.453125 "/></g></g></g><g fill="#f0ead6" fill-opacity="1"><g transform="translate(226.644248, 35.195996)"><g><path d="M 15.390625 -1.890625 C 15.453125 -1.890625 15.507812 -1.835938 15.5625 -1.734375 C 15.613281 -1.640625 15.609375 -1.582031 15.546875 -1.5625 L 11.640625 0.34375 L 11.453125 0.359375 C 11.253906 0.359375 11.066406 0.15625 10.890625 -0.25 C 10.710938 -0.65625 10.613281 -1.203125 10.59375 -1.890625 C 9.863281 -1.203125 9.109375 -0.648438 8.328125 -0.234375 C 7.554688 0.179688 6.710938 0.390625 5.796875 0.390625 C 4.921875 0.390625 4.117188 0.15625 3.390625 -0.3125 C 2.660156 -0.789062 2.082031 -1.476562 1.65625 -2.375 C 1.226562 -3.28125 1.015625 -4.332031 1.015625 -5.53125 C 1.015625 -7.039062 1.367188 -8.289062 2.078125 -9.28125 C 2.785156 -10.28125 3.679688 -11.015625 4.765625 -11.484375 C 5.847656 -11.953125 6.925781 -12.1875 8 -12.1875 C 8.894531 -12.1875 9.75 -12.023438 10.5625 -11.703125 L 10.5625 -18.078125 C 10.5625 -18.796875 10.492188 -19.3125 10.359375 -19.625 C 10.234375 -19.9375 10 -20.09375 9.65625 -20.09375 C 9.425781 -20.09375 9.019531 -19.972656 8.4375 -19.734375 L 8.375 -19.734375 C 8.289062 -19.734375 8.226562 -19.78125 8.1875 -19.875 C 8.144531 -19.976562 8.144531 -20.039062 8.1875 -20.0625 L 12.5 -22.109375 L 12.609375 -22.140625 C 12.691406 -22.140625 12.785156 -22.097656 12.890625 -22.015625 C 12.992188 -21.941406 13.046875 -21.875 13.046875 -21.8125 L 13.046875 -3.484375 C 13.046875 -2.765625 13.113281 -2.257812 13.25 -1.96875 C 13.394531 -1.675781 13.640625 -1.53125 13.984375 -1.53125 C 14.390625 -1.53125 14.847656 -1.648438 15.359375 -1.890625 Z M 7.328125 -0.953125 C 7.921875 -0.953125 8.476562 -1.082031 9 -1.34375 C 9.519531 -1.601562 10.039062 -1.976562 10.5625 -2.46875 L 10.5625 -9.78125 C 10.15625 -10.34375 9.703125 -10.757812 9.203125 -11.03125 C 8.710938 -11.3125 8.117188 -11.453125 7.421875 -11.453125 C 6.265625 -11.453125 5.363281 -11.046875 4.71875 -10.234375 C 4.070312 -9.421875 3.75 -8.164062 3.75 -6.46875 C 3.75 -4.757812 4.082031 -3.410156 4.75 -2.421875 C 5.425781 -1.441406 6.285156 -0.953125 7.328125 -0.953125 Z M 7.328125 -0.953125 "/></g></g></g><g fill="#f0ead6" fill-opacity="1"><g transform="translate(242.24972, 35.195996)"><g><path d="M 7.671875 -1.0625 C 8.828125 -1.039062 9.769531 -0.976562 10.5 -0.875 C 11.238281 -0.78125 11.878906 -0.5 12.421875 -0.03125 C 12.960938 0.4375 13.234375 1.171875 13.234375 2.171875 C 13.234375 3.285156 12.875 4.335938 12.15625 5.328125 C 11.445312 6.316406 10.5 7.101562 9.3125 7.6875 C 8.132812 8.28125 6.875 8.578125 5.53125 8.578125 C 4.125 8.578125 2.988281 8.257812 2.125 7.625 C 1.257812 7 0.828125 6.175781 0.828125 5.15625 C 0.828125 3.71875 1.863281 2.304688 3.9375 0.921875 C 2.4375 0.628906 1.6875 -0.09375 1.6875 -1.25 C 1.6875 -1.882812 1.863281 -2.460938 2.21875 -2.984375 C 2.570312 -3.515625 3.113281 -4.035156 3.84375 -4.546875 C 3.09375 -4.898438 2.507812 -5.398438 2.09375 -6.046875 C 1.675781 -6.703125 1.46875 -7.394531 1.46875 -8.125 C 1.46875 -8.914062 1.710938 -9.609375 2.203125 -10.203125 C 2.691406 -10.796875 3.328125 -11.242188 4.109375 -11.546875 C 4.890625 -11.847656 5.726562 -12 6.625 -12 C 7.925781 -12 9.003906 -11.675781 9.859375 -11.03125 C 10.410156 -11.375 10.953125 -11.628906 11.484375 -11.796875 C 12.015625 -11.972656 12.585938 -12.0625 13.203125 -12.0625 C 13.335938 -12.0625 13.40625 -11.796875 13.40625 -11.265625 C 13.40625 -10.984375 13.367188 -10.6875 13.296875 -10.375 C 13.234375 -10.070312 13.160156 -9.953125 13.078125 -10.015625 C 12.222656 -10.347656 11.488281 -10.515625 10.875 -10.515625 C 10.6875 -10.515625 10.554688 -10.503906 10.484375 -10.484375 C 11.066406 -9.828125 11.359375 -9.050781 11.359375 -8.15625 C 11.359375 -7.382812 11.113281 -6.679688 10.625 -6.046875 C 10.132812 -5.410156 9.492188 -4.921875 8.703125 -4.578125 C 7.910156 -4.234375 7.066406 -4.0625 6.171875 -4.0625 C 5.492188 -4.0625 4.882812 -4.15625 4.34375 -4.34375 C 3.894531 -3.914062 3.671875 -3.40625 3.671875 -2.8125 C 3.671875 -2.070312 3.96875 -1.597656 4.5625 -1.390625 C 5.164062 -1.191406 6.203125 -1.082031 7.671875 -1.0625 Z M 5.71875 -11.453125 C 4.613281 -11.453125 4.0625 -10.628906 4.0625 -8.984375 C 4.0625 -8.128906 4.195312 -7.363281 4.46875 -6.6875 C 4.75 -6.019531 5.109375 -5.5 5.546875 -5.125 C 5.984375 -4.757812 6.4375 -4.578125 6.90625 -4.578125 C 7.4375 -4.578125 7.875 -4.804688 8.21875 -5.265625 C 8.5625 -5.722656 8.734375 -6.421875 8.734375 -7.359375 C 8.734375 -8.210938 8.582031 -8.953125 8.28125 -9.578125 C 7.988281 -10.203125 7.613281 -10.671875 7.15625 -10.984375 C 6.695312 -11.296875 6.21875 -11.453125 5.71875 -11.453125 Z M 7.171875 7.640625 C 8.335938 7.640625 9.269531 7.296875 9.96875 6.609375 C 10.675781 5.929688 11.03125 5.007812 11.03125 3.84375 C 11.03125 2.988281 10.835938 2.367188 10.453125 1.984375 C 10.078125 1.597656 9.578125 1.351562 8.953125 1.25 C 8.335938 1.144531 7.460938 1.09375 6.328125 1.09375 C 5.753906 1.09375 5.203125 1.066406 4.671875 1.015625 C 3.710938 1.703125 3.234375 2.613281 3.234375 3.75 C 3.234375 4.976562 3.601562 5.929688 4.34375 6.609375 C 5.09375 7.296875 6.035156 7.640625 7.171875 7.640625 Z M 7.171875 7.640625 "/></g></g></g><g fill="#f0ead6" fill-opacity="1"><g transform="translate(255.961778, 35.195996)"><g><path d="M 11.578125 -1.921875 C 11.617188 -1.921875 11.664062 -1.878906 11.71875 -1.796875 C 11.769531 -1.722656 11.773438 -1.664062 11.734375 -1.625 C 10.972656 -0.925781 10.21875 -0.421875 9.46875 -0.109375 C 8.71875 0.203125 7.90625 0.359375 7.03125 0.359375 C 5.78125 0.359375 4.703125 0.0859375 3.796875 -0.453125 C 2.890625 -1.003906 2.195312 -1.726562 1.71875 -2.625 C 1.25 -3.519531 1.015625 -4.488281 1.015625 -5.53125 C 1.015625 -6.726562 1.304688 -7.828125 1.890625 -8.828125 C 2.484375 -9.828125 3.289062 -10.613281 4.3125 -11.1875 C 5.34375 -11.769531 6.492188 -12.0625 7.765625 -12.0625 C 8.984375 -12.0625 9.925781 -11.765625 10.59375 -11.171875 C 11.269531 -10.585938 11.609375 -9.710938 11.609375 -8.546875 C 11.609375 -7.960938 11.484375 -7.671875 11.234375 -7.671875 L 3.78125 -7.640625 C 3.757812 -7.453125 3.75 -7.175781 3.75 -6.8125 C 3.75 -5.019531 4.160156 -3.597656 4.984375 -2.546875 C 5.816406 -1.503906 6.992188 -0.984375 8.515625 -0.984375 C 9.085938 -0.984375 9.566406 -1.046875 9.953125 -1.171875 C 10.335938 -1.304688 10.859375 -1.546875 11.515625 -1.890625 Z M 6.65625 -11.453125 C 5.90625 -11.453125 5.289062 -11.160156 4.8125 -10.578125 C 4.332031 -10.003906 4.007812 -9.207031 3.84375 -8.1875 L 8.734375 -8.28125 C 8.691406 -10.394531 8 -11.453125 6.65625 -11.453125 Z M 6.65625 -11.453125 "/></g></g></g><g fill="#f0ead6" fill-opacity="1"><g transform="translate(268.635501, 35.195996)"><g><path d="M 8.890625 -12.09375 C 9.359375 -12.09375 9.804688 -11.941406 10.234375 -11.640625 C 10.660156 -11.335938 10.875 -10.96875 10.875 -10.53125 C 10.875 -10.144531 10.753906 -9.828125 10.515625 -9.578125 C 10.285156 -9.335938 9.96875 -9.21875 9.5625 -9.21875 C 9.300781 -9.21875 9.082031 -9.273438 8.90625 -9.390625 C 8.726562 -9.503906 8.550781 -9.660156 8.375 -9.859375 C 8.1875 -10.046875 8.019531 -10.1875 7.875 -10.28125 C 7.738281 -10.375 7.566406 -10.421875 7.359375 -10.421875 C 7.140625 -10.421875 6.898438 -10.332031 6.640625 -10.15625 C 6.390625 -9.976562 6 -9.617188 5.46875 -9.078125 L 5.46875 -2.46875 C 5.46875 -1.90625 5.546875 -1.472656 5.703125 -1.171875 C 5.867188 -0.878906 6.144531 -0.671875 6.53125 -0.546875 C 6.925781 -0.421875 7.5 -0.359375 8.25 -0.359375 C 8.332031 -0.359375 8.375 -0.296875 8.375 -0.171875 C 8.375 -0.0546875 8.332031 0 8.25 0 C 7.570312 0 7.03125 -0.0078125 6.625 -0.03125 L 4.21875 -0.0625 L 2.4375 -0.03125 C 2.15625 -0.0078125 1.757812 0 1.25 0 C 1.1875 0 1.15625 -0.0546875 1.15625 -0.171875 C 1.15625 -0.296875 1.1875 -0.359375 1.25 -0.359375 C 1.945312 -0.359375 2.40625 -0.5 2.625 -0.78125 C 2.851562 -1.070312 2.96875 -1.632812 2.96875 -2.46875 L 2.96875 -8.3125 C 2.96875 -8.957031 2.890625 -9.429688 2.734375 -9.734375 C 2.578125 -10.046875 2.328125 -10.203125 1.984375 -10.203125 C 1.679688 -10.203125 1.171875 -10.050781 0.453125 -9.75 L 0.421875 -9.75 C 0.347656 -9.75 0.289062 -9.796875 0.25 -9.890625 C 0.207031 -9.992188 0.21875 -10.054688 0.28125 -10.078125 L 4.28125 -12.03125 C 4.394531 -12.070312 4.460938 -12.09375 4.484375 -12.09375 C 4.691406 -12.09375 4.894531 -11.875 5.09375 -11.4375 C 5.300781 -11 5.425781 -10.425781 5.46875 -9.71875 C 6.257812 -10.613281 6.921875 -11.234375 7.453125 -11.578125 C 7.984375 -11.921875 8.460938 -12.09375 8.890625 -12.09375 Z M 8.890625 -12.09375 "/></g></g></g><g fill="#f0ead6" fill-opacity="1"><g transform="translate(81.258713, 54.113546)"><g><path d="M 10.078125 -10.21875 C 10.097656 -10.21875 10.109375 -10.1875 10.109375 -10.125 C 10.109375 -10.0625 10.097656 -10.03125 10.078125 -10.03125 C 9.691406 -10.03125 9.289062 -9.875 8.875 -9.5625 C 8.457031 -9.25 8.082031 -8.828125 7.75 -8.296875 L 5.640625 -5.015625 L 5.640625 -1.328125 C 5.640625 -0.984375 5.671875 -0.734375 5.734375 -0.578125 C 5.804688 -0.429688 5.929688 -0.332031 6.109375 -0.28125 C 6.285156 -0.226562 6.578125 -0.203125 6.984375 -0.203125 C 7.015625 -0.203125 7.03125 -0.164062 7.03125 -0.09375 C 7.03125 -0.03125 7.015625 0 6.984375 0 C 6.648438 0 6.390625 -0.00390625 6.203125 -0.015625 L 5.03125 -0.03125 L 3.90625 -0.015625 C 3.695312 -0.00390625 3.421875 0 3.078125 0 C 3.054688 0 3.046875 -0.03125 3.046875 -0.09375 C 3.046875 -0.164062 3.054688 -0.203125 3.078125 -0.203125 C 3.484375 -0.203125 3.773438 -0.226562 3.953125 -0.28125 C 4.140625 -0.332031 4.269531 -0.4375 4.34375 -0.59375 C 4.414062 -0.75 4.453125 -0.992188 4.453125 -1.328125 L 4.453125 -4.765625 L 1.796875 -8.6875 C 1.472656 -9.1875 1.171875 -9.535156 0.890625 -9.734375 C 0.617188 -9.929688 0.320312 -10.03125 0 -10.03125 C -0.03125 -10.03125 -0.046875 -10.0625 -0.046875 -10.125 C -0.046875 -10.1875 -0.03125 -10.21875 0 -10.21875 L 0.578125 -10.203125 C 0.835938 -10.179688 1.023438 -10.171875 1.140625 -10.171875 C 1.515625 -10.171875 1.992188 -10.179688 2.578125 -10.203125 L 3.5 -10.21875 C 3.519531 -10.21875 3.53125 -10.1875 3.53125 -10.125 C 3.53125 -10.0625 3.519531 -10.03125 3.5 -10.03125 C 2.96875 -10.03125 2.703125 -9.90625 2.703125 -9.65625 C 2.703125 -9.539062 2.757812 -9.398438 2.875 -9.234375 L 5.453125 -5.421875 L 7.34375 -8.390625 C 7.59375 -8.804688 7.71875 -9.144531 7.71875 -9.40625 C 7.71875 -9.820312 7.425781 -10.03125 6.84375 -10.03125 C 6.820312 -10.03125 6.8125 -10.0625 6.8125 -10.125 C 6.8125 -10.1875 6.820312 -10.21875 6.84375 -10.21875 L 7.625 -10.203125 C 8.0625 -10.179688 8.453125 -10.171875 8.796875 -10.171875 C 8.984375 -10.171875 9.207031 -10.179688 9.46875 -10.203125 Z M 10.078125 -10.21875 "/></g></g></g><g fill="#f0ead6" fill-opacity="1"><g transform="translate(91.247161, 54.113546)"><g><path d="M 3.796875 0.21875 C 3.148438 0.21875 2.582031 0.0625 2.09375 -0.25 C 1.613281 -0.5625 1.238281 -0.984375 0.96875 -1.515625 C 0.707031 -2.046875 0.578125 -2.617188 0.578125 -3.234375 C 0.578125 -3.941406 0.75 -4.546875 1.09375 -5.046875 C 1.445312 -5.546875 1.890625 -5.914062 2.421875 -6.15625 C 2.960938 -6.40625 3.519531 -6.53125 4.09375 -6.53125 C 4.738281 -6.53125 5.300781 -6.367188 5.78125 -6.046875 C 6.269531 -5.734375 6.644531 -5.316406 6.90625 -4.796875 C 7.164062 -4.285156 7.296875 -3.738281 7.296875 -3.15625 C 7.296875 -2.476562 7.132812 -1.882812 6.8125 -1.375 C 6.5 -0.875 6.078125 -0.484375 5.546875 -0.203125 C 5.015625 0.078125 4.429688 0.21875 3.796875 0.21875 Z M 4.265625 -0.09375 C 4.835938 -0.09375 5.273438 -0.304688 5.578125 -0.734375 C 5.890625 -1.160156 6.046875 -1.8125 6.046875 -2.6875 C 6.046875 -3.375 5.9375 -3.984375 5.71875 -4.515625 C 5.507812 -5.046875 5.210938 -5.457031 4.828125 -5.75 C 4.441406 -6.050781 4.015625 -6.203125 3.546875 -6.203125 C 2.992188 -6.203125 2.5625 -5.992188 2.25 -5.578125 C 1.945312 -5.160156 1.796875 -4.554688 1.796875 -3.765625 C 1.796875 -3.085938 1.898438 -2.46875 2.109375 -1.90625 C 2.328125 -1.34375 2.617188 -0.898438 2.984375 -0.578125 C 3.359375 -0.253906 3.785156 -0.09375 4.265625 -0.09375 Z M 4.265625 -0.09375 "/></g></g></g><g fill="#f0ead6" fill-opacity="1"><g transform="translate(99.110408, 54.113546)"><g><path d="M 8 -0.96875 C 8.039062 -0.96875 8.066406 -0.9375 8.078125 -0.875 C 8.097656 -0.820312 8.09375 -0.785156 8.0625 -0.765625 L 6.078125 0.15625 L 6.015625 0.1875 C 5.910156 0.1875 5.804688 0.0546875 5.703125 -0.203125 C 5.609375 -0.472656 5.5625 -0.816406 5.5625 -1.234375 C 4.738281 -0.316406 3.890625 0.140625 3.015625 0.140625 C 2.453125 0.140625 2.015625 -0.03125 1.703125 -0.375 C 1.390625 -0.726562 1.234375 -1.222656 1.234375 -1.859375 L 1.234375 -4.375 C 1.234375 -4.78125 1.195312 -5.078125 1.125 -5.265625 C 1.050781 -5.453125 0.925781 -5.546875 0.75 -5.546875 C 0.625 -5.546875 0.445312 -5.5 0.21875 -5.40625 L 0.1875 -5.40625 C 0.144531 -5.40625 0.113281 -5.429688 0.09375 -5.484375 C 0.0820312 -5.535156 0.09375 -5.566406 0.125 -5.578125 L 2.015625 -6.453125 L 2.078125 -6.46875 C 2.109375 -6.46875 2.144531 -6.445312 2.1875 -6.40625 C 2.226562 -6.375 2.25 -6.34375 2.25 -6.3125 L 2.25 -2.46875 C 2.25 -1.21875 2.707031 -0.59375 3.625 -0.59375 C 3.957031 -0.59375 4.289062 -0.671875 4.625 -0.828125 C 4.96875 -0.992188 5.28125 -1.222656 5.5625 -1.515625 L 5.5625 -4.375 C 5.5625 -4.78125 5.519531 -5.078125 5.4375 -5.265625 C 5.363281 -5.453125 5.242188 -5.546875 5.078125 -5.546875 C 4.941406 -5.546875 4.757812 -5.5 4.53125 -5.40625 L 4.5 -5.40625 C 4.46875 -5.40625 4.445312 -5.429688 4.4375 -5.484375 C 4.425781 -5.535156 4.4375 -5.566406 4.46875 -5.578125 L 6.34375 -6.453125 L 6.40625 -6.46875 C 6.445312 -6.46875 6.484375 -6.445312 6.515625 -6.40625 C 6.554688 -6.375 6.578125 -6.34375 6.578125 -6.3125 L 6.578125 -1.78125 C 6.578125 -1.414062 6.617188 -1.148438 6.703125 -0.984375 C 6.796875 -0.816406 6.9375 -0.734375 7.125 -0.734375 C 7.289062 -0.734375 7.570312 -0.804688 7.96875 -0.953125 Z M 8 -0.96875 "/></g></g></g><g fill="#f0ead6" fill-opacity="1"><g transform="translate(107.202524, 54.113546)"><g><path d="M 4.5625 -6.46875 C 4.800781 -6.46875 5.03125 -6.394531 5.25 -6.25 C 5.476562 -6.101562 5.59375 -5.929688 5.59375 -5.734375 C 5.59375 -5.585938 5.539062 -5.460938 5.4375 -5.359375 C 5.332031 -5.253906 5.191406 -5.203125 5.015625 -5.203125 C 4.910156 -5.203125 4.816406 -5.222656 4.734375 -5.265625 C 4.660156 -5.304688 4.578125 -5.375 4.484375 -5.46875 C 4.367188 -5.550781 4.269531 -5.613281 4.1875 -5.65625 C 4.113281 -5.695312 4.015625 -5.71875 3.890625 -5.71875 C 3.753906 -5.71875 3.609375 -5.664062 3.453125 -5.5625 C 3.304688 -5.457031 3.070312 -5.21875 2.75 -4.84375 L 2.75 -1.328125 C 2.75 -1.003906 2.789062 -0.765625 2.875 -0.609375 C 2.957031 -0.453125 3.101562 -0.34375 3.3125 -0.28125 C 3.53125 -0.226562 3.863281 -0.203125 4.3125 -0.203125 C 4.351562 -0.203125 4.375 -0.164062 4.375 -0.09375 C 4.375 -0.03125 4.351562 0 4.3125 0 C 3.957031 0 3.671875 -0.00390625 3.453125 -0.015625 L 2.21875 -0.03125 L 1.34375 -0.015625 C 1.1875 -0.00390625 0.976562 0 0.71875 0 C 0.6875 0 0.671875 -0.03125 0.671875 -0.09375 C 0.671875 -0.164062 0.6875 -0.203125 0.71875 -0.203125 C 1 -0.203125 1.207031 -0.226562 1.34375 -0.28125 C 1.476562 -0.34375 1.570312 -0.453125 1.625 -0.609375 C 1.675781 -0.765625 1.703125 -1.003906 1.703125 -1.328125 L 1.703125 -4.53125 C 1.703125 -4.894531 1.65625 -5.15625 1.5625 -5.3125 C 1.476562 -5.476562 1.335938 -5.5625 1.140625 -5.5625 C 0.984375 -5.5625 0.695312 -5.476562 0.28125 -5.3125 L 0.265625 -5.3125 C 0.222656 -5.3125 0.1875 -5.335938 0.15625 -5.390625 C 0.132812 -5.441406 0.148438 -5.476562 0.203125 -5.5 L 2.15625 -6.453125 L 2.25 -6.46875 C 2.363281 -6.46875 2.472656 -6.34375 2.578125 -6.09375 C 2.679688 -5.84375 2.738281 -5.523438 2.75 -5.140625 C 3.195312 -5.648438 3.550781 -6 3.8125 -6.1875 C 4.070312 -6.375 4.320312 -6.46875 4.5625 -6.46875 Z M 4.5625 -6.46875 "/></g></g></g><g fill="#f0ead6" fill-opacity="1"><g transform="translate(113.202135, 54.113546)"><g/></g></g><g fill="#f0ead6" fill-opacity="1"><g transform="translate(117.027494, 54.113546)"><g><path d="M 11.234375 -0.203125 C 11.265625 -0.203125 11.28125 -0.164062 11.28125 -0.09375 C 11.28125 -0.03125 11.265625 0 11.234375 0 L 9 0 C 8.738281 0 8.242188 -0.441406 7.515625 -1.328125 C 6.785156 -2.222656 5.898438 -3.46875 4.859375 -5.0625 C 4.566406 -5 4.296875 -4.96875 4.046875 -4.96875 C 3.984375 -4.96875 3.722656 -4.984375 3.265625 -5.015625 L 3.265625 -1.328125 C 3.265625 -0.984375 3.296875 -0.734375 3.359375 -0.578125 C 3.429688 -0.429688 3.5625 -0.332031 3.75 -0.28125 C 3.9375 -0.226562 4.226562 -0.203125 4.625 -0.203125 C 4.65625 -0.203125 4.671875 -0.164062 4.671875 -0.09375 C 4.671875 -0.03125 4.65625 0 4.625 0 C 4.28125 0 4.015625 -0.00390625 3.828125 -0.015625 L 2.671875 -0.03125 L 1.53125 -0.015625 C 1.332031 -0.00390625 1.054688 0 0.703125 0 C 0.679688 0 0.671875 -0.03125 0.671875 -0.09375 C 0.671875 -0.164062 0.679688 -0.203125 0.703125 -0.203125 C 1.109375 -0.203125 1.398438 -0.226562 1.578125 -0.28125 C 1.765625 -0.332031 1.894531 -0.4375 1.96875 -0.59375 C 2.039062 -0.75 2.078125 -0.992188 2.078125 -1.328125 L 2.078125 -8.90625 C 2.078125 -9.226562 2.039062 -9.460938 1.96875 -9.609375 C 1.90625 -9.765625 1.78125 -9.875 1.59375 -9.9375 C 1.414062 -10 1.128906 -10.03125 0.734375 -10.03125 C 0.703125 -10.03125 0.6875 -10.0625 0.6875 -10.125 C 0.6875 -10.1875 0.703125 -10.21875 0.734375 -10.21875 L 1.53125 -10.203125 C 1.988281 -10.179688 2.367188 -10.171875 2.671875 -10.171875 C 2.898438 -10.171875 3.113281 -10.175781 3.3125 -10.1875 C 3.519531 -10.195312 3.703125 -10.207031 3.859375 -10.21875 C 4.265625 -10.257812 4.640625 -10.28125 4.984375 -10.28125 C 5.859375 -10.28125 6.535156 -10.082031 7.015625 -9.6875 C 7.503906 -9.300781 7.75 -8.78125 7.75 -8.125 C 7.75 -7.539062 7.578125 -7.007812 7.234375 -6.53125 C 6.890625 -6.050781 6.4375 -5.675781 5.875 -5.40625 C 6.789062 -4.082031 7.554688 -3.046875 8.171875 -2.296875 C 8.785156 -1.554688 9.332031 -1.019531 9.8125 -0.6875 C 10.300781 -0.363281 10.773438 -0.203125 11.234375 -0.203125 Z M 3.265625 -5.421875 C 3.578125 -5.378906 3.898438 -5.359375 4.234375 -5.359375 C 5.054688 -5.359375 5.640625 -5.539062 5.984375 -5.90625 C 6.335938 -6.28125 6.515625 -6.851562 6.515625 -7.625 C 6.515625 -8.488281 6.332031 -9.101562 5.96875 -9.46875 C 5.613281 -9.832031 5.097656 -10.015625 4.421875 -10.015625 C 3.992188 -10.015625 3.691406 -9.929688 3.515625 -9.765625 C 3.347656 -9.609375 3.265625 -9.304688 3.265625 -8.859375 Z M 3.265625 -5.421875 "/></g></g></g><g fill="#f0ead6" fill-opacity="1"><g transform="translate(128.111233, 54.113546)"><g><path d="M 5.953125 -0.953125 C 5.984375 -0.953125 6.007812 -0.929688 6.03125 -0.890625 C 6.0625 -0.847656 6.066406 -0.8125 6.046875 -0.78125 C 5.316406 -0.125 4.507812 0.203125 3.625 0.203125 C 2.988281 0.203125 2.441406 0.0546875 1.984375 -0.234375 C 1.523438 -0.523438 1.175781 -0.910156 0.9375 -1.390625 C 0.695312 -1.878906 0.578125 -2.40625 0.578125 -2.96875 C 0.578125 -3.601562 0.726562 -4.1875 1.03125 -4.71875 C 1.34375 -5.257812 1.765625 -5.6875 2.296875 -6 C 2.835938 -6.3125 3.429688 -6.46875 4.078125 -6.46875 C 4.703125 -6.46875 5.179688 -6.304688 5.515625 -5.984375 C 5.847656 -5.660156 6.015625 -5.195312 6.015625 -4.59375 C 6.015625 -4.300781 5.953125 -4.15625 5.828125 -4.15625 L 1.78125 -4.140625 C 1.757812 -3.898438 1.75 -3.710938 1.75 -3.578125 C 1.75 -2.628906 1.972656 -1.863281 2.421875 -1.28125 C 2.867188 -0.707031 3.5 -0.421875 4.3125 -0.421875 C 4.644531 -0.421875 4.921875 -0.460938 5.140625 -0.546875 C 5.367188 -0.628906 5.632812 -0.765625 5.9375 -0.953125 Z M 3.515625 -6.140625 C 3.054688 -6.140625 2.679688 -5.984375 2.390625 -5.671875 C 2.097656 -5.359375 1.90625 -4.925781 1.8125 -4.375 L 4.796875 -4.4375 C 4.796875 -4.988281 4.679688 -5.410156 4.453125 -5.703125 C 4.234375 -5.992188 3.921875 -6.140625 3.515625 -6.140625 Z M 3.515625 -6.140625 "/></g></g></g><g fill="#f0ead6" fill-opacity="1"><g transform="translate(134.797443, 54.113546)"><g><path d="M 3.78125 0.203125 C 3.070312 0.203125 2.476562 0.046875 2 -0.265625 C 1.519531 -0.578125 1.160156 -0.976562 0.921875 -1.46875 C 0.691406 -1.957031 0.578125 -2.476562 0.578125 -3.03125 C 0.578125 -3.726562 0.753906 -4.332031 1.109375 -4.84375 C 1.472656 -5.363281 1.929688 -5.765625 2.484375 -6.046875 C 3.046875 -6.328125 3.617188 -6.46875 4.203125 -6.46875 C 4.691406 -6.46875 5.132812 -6.367188 5.53125 -6.171875 C 5.9375 -5.972656 6.140625 -5.726562 6.140625 -5.4375 C 6.140625 -5.269531 6.082031 -5.128906 5.96875 -5.015625 C 5.851562 -4.910156 5.703125 -4.859375 5.515625 -4.859375 C 5.160156 -4.859375 4.898438 -5.054688 4.734375 -5.453125 C 4.609375 -5.691406 4.46875 -5.863281 4.3125 -5.96875 C 4.15625 -6.082031 3.925781 -6.140625 3.625 -6.140625 C 3.039062 -6.140625 2.582031 -5.898438 2.25 -5.421875 C 1.925781 -4.953125 1.765625 -4.320312 1.765625 -3.53125 C 1.765625 -2.613281 1.988281 -1.863281 2.4375 -1.28125 C 2.882812 -0.695312 3.566406 -0.40625 4.484375 -0.40625 C 5.109375 -0.40625 5.65625 -0.582031 6.125 -0.9375 L 6.15625 -0.9375 C 6.1875 -0.9375 6.210938 -0.914062 6.234375 -0.875 C 6.265625 -0.84375 6.265625 -0.816406 6.234375 -0.796875 C 5.847656 -0.453125 5.460938 -0.195312 5.078125 -0.03125 C 4.691406 0.125 4.257812 0.203125 3.78125 0.203125 Z M 3.78125 0.203125 "/></g></g></g><g fill="#f0ead6" fill-opacity="1"><g transform="translate(141.549045, 54.113546)"><g><path d="M 3.796875 0.21875 C 3.148438 0.21875 2.582031 0.0625 2.09375 -0.25 C 1.613281 -0.5625 1.238281 -0.984375 0.96875 -1.515625 C 0.707031 -2.046875 0.578125 -2.617188 0.578125 -3.234375 C 0.578125 -3.941406 0.75 -4.546875 1.09375 -5.046875 C 1.445312 -5.546875 1.890625 -5.914062 2.421875 -6.15625 C 2.960938 -6.40625 3.519531 -6.53125 4.09375 -6.53125 C 4.738281 -6.53125 5.300781 -6.367188 5.78125 -6.046875 C 6.269531 -5.734375 6.644531 -5.316406 6.90625 -4.796875 C 7.164062 -4.285156 7.296875 -3.738281 7.296875 -3.15625 C 7.296875 -2.476562 7.132812 -1.882812 6.8125 -1.375 C 6.5 -0.875 6.078125 -0.484375 5.546875 -0.203125 C 5.015625 0.078125 4.429688 0.21875 3.796875 0.21875 Z M 4.265625 -0.09375 C 4.835938 -0.09375 5.273438 -0.304688 5.578125 -0.734375 C 5.890625 -1.160156 6.046875 -1.8125 6.046875 -2.6875 C 6.046875 -3.375 5.9375 -3.984375 5.71875 -4.515625 C 5.507812 -5.046875 5.210938 -5.457031 4.828125 -5.75 C 4.441406 -6.050781 4.015625 -6.203125 3.546875 -6.203125 C 2.992188 -6.203125 2.5625 -5.992188 2.25 -5.578125 C 1.945312 -5.160156 1.796875 -4.554688 1.796875 -3.765625 C 1.796875 -3.085938 1.898438 -2.46875 2.109375 -1.90625 C 2.328125 -1.34375 2.617188 -0.898438 2.984375 -0.578125 C 3.359375 -0.253906 3.785156 -0.09375 4.265625 -0.09375 Z M 4.265625 -0.09375 "/></g></g></g><g fill="#f0ead6" fill-opacity="1"><g transform="translate(149.412291, 54.113546)"><g><path d="M 4.5625 -6.46875 C 4.800781 -6.46875 5.03125 -6.394531 5.25 -6.25 C 5.476562 -6.101562 5.59375 -5.929688 5.59375 -5.734375 C 5.59375 -5.585938 5.539062 -5.460938 5.4375 -5.359375 C 5.332031 -5.253906 5.191406 -5.203125 5.015625 -5.203125 C 4.910156 -5.203125 4.816406 -5.222656 4.734375 -5.265625 C 4.660156 -5.304688 4.578125 -5.375 4.484375 -5.46875 C 4.367188 -5.550781 4.269531 -5.613281 4.1875 -5.65625 C 4.113281 -5.695312 4.015625 -5.71875 3.890625 -5.71875 C 3.753906 -5.71875 3.609375 -5.664062 3.453125 -5.5625 C 3.304688 -5.457031 3.070312 -5.21875 2.75 -4.84375 L 2.75 -1.328125 C 2.75 -1.003906 2.789062 -0.765625 2.875 -0.609375 C 2.957031 -0.453125 3.101562 -0.34375 3.3125 -0.28125 C 3.53125 -0.226562 3.863281 -0.203125 4.3125 -0.203125 C 4.351562 -0.203125 4.375 -0.164062 4.375 -0.09375 C 4.375 -0.03125 4.351562 0 4.3125 0 C 3.957031 0 3.671875 -0.00390625 3.453125 -0.015625 L 2.21875 -0.03125 L 1.34375 -0.015625 C 1.1875 -0.00390625 0.976562 0 0.71875 0 C 0.6875 0 0.671875 -0.03125 0.671875 -0.09375 C 0.671875 -0.164062 0.6875 -0.203125 0.71875 -0.203125 C 1 -0.203125 1.207031 -0.226562 1.34375 -0.28125 C 1.476562 -0.34375 1.570312 -0.453125 1.625 -0.609375 C 1.675781 -0.765625 1.703125 -1.003906 1.703125 -1.328125 L 1.703125 -4.53125 C 1.703125 -4.894531 1.65625 -5.15625 1.5625 -5.3125 C 1.476562 -5.476562 1.335938 -5.5625 1.140625 -5.5625 C 0.984375 -5.5625 0.695312 -5.476562 0.28125 -5.3125 L 0.265625 -5.3125 C 0.222656 -5.3125 0.1875 -5.335938 0.15625 -5.390625 C 0.132812 -5.441406 0.148438 -5.476562 0.203125 -5.5 L 2.15625 -6.453125 L 2.25 -6.46875 C 2.363281 -6.46875 2.472656 -6.34375 2.578125 -6.09375 C 2.679688 -5.84375 2.738281 -5.523438 2.75 -5.140625 C 3.195312 -5.648438 3.550781 -6 3.8125 -6.1875 C 4.070312 -6.375 4.320312 -6.46875 4.5625 -6.46875 Z M 4.5625 -6.46875 "/></g></g></g><g fill="#f0ead6" fill-opacity="1"><g transform="translate(155.411901, 54.113546)"><g><path d="M 8.28125 -0.953125 C 8.3125 -0.953125 8.335938 -0.921875 8.359375 -0.859375 C 8.378906 -0.804688 8.375 -0.773438 8.34375 -0.765625 L 6.46875 0.125 C 6.394531 0.144531 6.351562 0.15625 6.34375 0.15625 C 6.207031 0.15625 6.085938 0.0390625 5.984375 -0.1875 C 5.890625 -0.414062 5.835938 -0.734375 5.828125 -1.140625 C 5.429688 -0.742188 5.015625 -0.414062 4.578125 -0.15625 C 4.140625 0.09375 3.660156 0.21875 3.140625 0.21875 C 2.679688 0.21875 2.253906 0.0859375 1.859375 -0.171875 C 1.472656 -0.429688 1.160156 -0.800781 0.921875 -1.28125 C 0.691406 -1.757812 0.578125 -2.304688 0.578125 -2.921875 C 0.578125 -3.710938 0.765625 -4.375 1.140625 -4.90625 C 1.523438 -5.445312 2.003906 -5.851562 2.578125 -6.125 C 3.160156 -6.394531 3.738281 -6.53125 4.3125 -6.53125 C 4.875 -6.53125 5.378906 -6.40625 5.828125 -6.15625 L 5.828125 -9.75 C 5.828125 -10.144531 5.785156 -10.425781 5.703125 -10.59375 C 5.628906 -10.757812 5.492188 -10.84375 5.296875 -10.84375 C 5.160156 -10.84375 4.921875 -10.773438 4.578125 -10.640625 L 4.546875 -10.640625 C 4.503906 -10.640625 4.472656 -10.660156 4.453125 -10.703125 C 4.441406 -10.753906 4.453125 -10.789062 4.484375 -10.8125 L 6.609375 -11.84375 C 6.628906 -11.851562 6.65625 -11.859375 6.6875 -11.859375 C 6.71875 -11.859375 6.753906 -11.84375 6.796875 -11.8125 C 6.835938 -11.78125 6.859375 -11.75 6.859375 -11.71875 L 6.859375 -1.8125 C 6.859375 -1.425781 6.898438 -1.144531 6.984375 -0.96875 C 7.066406 -0.800781 7.210938 -0.71875 7.421875 -0.71875 C 7.703125 -0.71875 7.976562 -0.796875 8.25 -0.953125 Z M 3.828125 -0.40625 C 4.203125 -0.40625 4.546875 -0.492188 4.859375 -0.671875 C 5.179688 -0.859375 5.503906 -1.113281 5.828125 -1.4375 L 5.828125 -5.109375 C 5.585938 -5.453125 5.3125 -5.71875 5 -5.90625 C 4.695312 -6.09375 4.332031 -6.1875 3.90625 -6.1875 C 3.238281 -6.1875 2.710938 -5.945312 2.328125 -5.46875 C 1.941406 -5 1.75 -4.316406 1.75 -3.421875 C 1.75 -2.515625 1.941406 -1.785156 2.328125 -1.234375 C 2.710938 -0.679688 3.210938 -0.40625 3.828125 -0.40625 Z M 3.828125 -0.40625 "/></g></g></g><g fill="#f0ead6" fill-opacity="1"><g transform="translate(163.781926, 54.113546)"><g><path d="M 1.640625 0.1875 C 1.410156 0.1875 1.222656 0.117188 1.078125 -0.015625 C 0.929688 -0.160156 0.859375 -0.351562 0.859375 -0.59375 C 0.859375 -0.8125 0.929688 -0.984375 1.078125 -1.109375 C 1.222656 -1.242188 1.410156 -1.3125 1.640625 -1.3125 C 1.878906 -1.3125 2.0625 -1.25 2.1875 -1.125 C 2.320312 -1 2.390625 -0.820312 2.390625 -0.59375 C 2.390625 -0.351562 2.320312 -0.160156 2.1875 -0.015625 C 2.0625 0.117188 1.878906 0.1875 1.640625 0.1875 Z M 1.640625 0.1875 "/></g></g></g><g fill="#f0ead6" fill-opacity="1"><g transform="translate(167.035115, 54.113546)"><g/></g></g><g fill="#f0ead6" fill-opacity="1"><g transform="translate(170.860474, 54.113546)"><g><path d="M 10.078125 -10.21875 C 10.097656 -10.21875 10.109375 -10.1875 10.109375 -10.125 C 10.109375 -10.0625 10.097656 -10.03125 10.078125 -10.03125 C 9.691406 -10.03125 9.289062 -9.875 8.875 -9.5625 C 8.457031 -9.25 8.082031 -8.828125 7.75 -8.296875 L 5.640625 -5.015625 L 5.640625 -1.328125 C 5.640625 -0.984375 5.671875 -0.734375 5.734375 -0.578125 C 5.804688 -0.429688 5.929688 -0.332031 6.109375 -0.28125 C 6.285156 -0.226562 6.578125 -0.203125 6.984375 -0.203125 C 7.015625 -0.203125 7.03125 -0.164062 7.03125 -0.09375 C 7.03125 -0.03125 7.015625 0 6.984375 0 C 6.648438 0 6.390625 -0.00390625 6.203125 -0.015625 L 5.03125 -0.03125 L 3.90625 -0.015625 C 3.695312 -0.00390625 3.421875 0 3.078125 0 C 3.054688 0 3.046875 -0.03125 3.046875 -0.09375 C 3.046875 -0.164062 3.054688 -0.203125 3.078125 -0.203125 C 3.484375 -0.203125 3.773438 -0.226562 3.953125 -0.28125 C 4.140625 -0.332031 4.269531 -0.4375 4.34375 -0.59375 C 4.414062 -0.75 4.453125 -0.992188 4.453125 -1.328125 L 4.453125 -4.765625 L 1.796875 -8.6875 C 1.472656 -9.1875 1.171875 -9.535156 0.890625 -9.734375 C 0.617188 -9.929688 0.320312 -10.03125 0 -10.03125 C -0.03125 -10.03125 -0.046875 -10.0625 -0.046875 -10.125 C -0.046875 -10.1875 -0.03125 -10.21875 0 -10.21875 L 0.578125 -10.203125 C 0.835938 -10.179688 1.023438 -10.171875 1.140625 -10.171875 C 1.515625 -10.171875 1.992188 -10.179688 2.578125 -10.203125 L 3.5 -10.21875 C 3.519531 -10.21875 3.53125 -10.1875 3.53125 -10.125 C 3.53125 -10.0625 3.519531 -10.03125 3.5 -10.03125 C 2.96875 -10.03125 2.703125 -9.90625 2.703125 -9.65625 C 2.703125 -9.539062 2.757812 -9.398438 2.875 -9.234375 L 5.453125 -5.421875 L 7.34375 -8.390625 C 7.59375 -8.804688 7.71875 -9.144531 7.71875 -9.40625 C 7.71875 -9.820312 7.425781 -10.03125 6.84375 -10.03125 C 6.820312 -10.03125 6.8125 -10.0625 6.8125 -10.125 C 6.8125 -10.1875 6.820312 -10.21875 6.84375 -10.21875 L 7.625 -10.203125 C 8.0625 -10.179688 8.453125 -10.171875 8.796875 -10.171875 C 8.984375 -10.171875 9.207031 -10.179688 9.46875 -10.203125 Z M 10.078125 -10.21875 "/></g></g></g><g fill="#f0ead6" fill-opacity="1"><g transform="translate(180.848922, 54.113546)"><g><path d="M 3.796875 0.21875 C 3.148438 0.21875 2.582031 0.0625 2.09375 -0.25 C 1.613281 -0.5625 1.238281 -0.984375 0.96875 -1.515625 C 0.707031 -2.046875 0.578125 -2.617188 0.578125 -3.234375 C 0.578125 -3.941406 0.75 -4.546875 1.09375 -5.046875 C 1.445312 -5.546875 1.890625 -5.914062 2.421875 -6.15625 C 2.960938 -6.40625 3.519531 -6.53125 4.09375 -6.53125 C 4.738281 -6.53125 5.300781 -6.367188 5.78125 -6.046875 C 6.269531 -5.734375 6.644531 -5.316406 6.90625 -4.796875 C 7.164062 -4.285156 7.296875 -3.738281 7.296875 -3.15625 C 7.296875 -2.476562 7.132812 -1.882812 6.8125 -1.375 C 6.5 -0.875 6.078125 -0.484375 5.546875 -0.203125 C 5.015625 0.078125 4.429688 0.21875 3.796875 0.21875 Z M 4.265625 -0.09375 C 4.835938 -0.09375 5.273438 -0.304688 5.578125 -0.734375 C 5.890625 -1.160156 6.046875 -1.8125 6.046875 -2.6875 C 6.046875 -3.375 5.9375 -3.984375 5.71875 -4.515625 C 5.507812 -5.046875 5.210938 -5.457031 4.828125 -5.75 C 4.441406 -6.050781 4.015625 -6.203125 3.546875 -6.203125 C 2.992188 -6.203125 2.5625 -5.992188 2.25 -5.578125 C 1.945312 -5.160156 1.796875 -4.554688 1.796875 -3.765625 C 1.796875 -3.085938 1.898438 -2.46875 2.109375 -1.90625 C 2.328125 -1.34375 2.617188 -0.898438 2.984375 -0.578125 C 3.359375 -0.253906 3.785156 -0.09375 4.265625 -0.09375 Z M 4.265625 -0.09375 "/></g></g></g><g fill="#f0ead6" fill-opacity="1"><g transform="translate(188.712169, 54.113546)"><g><path d="M 8 -0.96875 C 8.039062 -0.96875 8.066406 -0.9375 8.078125 -0.875 C 8.097656 -0.820312 8.09375 -0.785156 8.0625 -0.765625 L 6.078125 0.15625 L 6.015625 0.1875 C 5.910156 0.1875 5.804688 0.0546875 5.703125 -0.203125 C 5.609375 -0.472656 5.5625 -0.816406 5.5625 -1.234375 C 4.738281 -0.316406 3.890625 0.140625 3.015625 0.140625 C 2.453125 0.140625 2.015625 -0.03125 1.703125 -0.375 C 1.390625 -0.726562 1.234375 -1.222656 1.234375 -1.859375 L 1.234375 -4.375 C 1.234375 -4.78125 1.195312 -5.078125 1.125 -5.265625 C 1.050781 -5.453125 0.925781 -5.546875 0.75 -5.546875 C 0.625 -5.546875 0.445312 -5.5 0.21875 -5.40625 L 0.1875 -5.40625 C 0.144531 -5.40625 0.113281 -5.429688 0.09375 -5.484375 C 0.0820312 -5.535156 0.09375 -5.566406 0.125 -5.578125 L 2.015625 -6.453125 L 2.078125 -6.46875 C 2.109375 -6.46875 2.144531 -6.445312 2.1875 -6.40625 C 2.226562 -6.375 2.25 -6.34375 2.25 -6.3125 L 2.25 -2.46875 C 2.25 -1.21875 2.707031 -0.59375 3.625 -0.59375 C 3.957031 -0.59375 4.289062 -0.671875 4.625 -0.828125 C 4.96875 -0.992188 5.28125 -1.222656 5.5625 -1.515625 L 5.5625 -4.375 C 5.5625 -4.78125 5.519531 -5.078125 5.4375 -5.265625 C 5.363281 -5.453125 5.242188 -5.546875 5.078125 -5.546875 C 4.941406 -5.546875 4.757812 -5.5 4.53125 -5.40625 L 4.5 -5.40625 C 4.46875 -5.40625 4.445312 -5.429688 4.4375 -5.484375 C 4.425781 -5.535156 4.4375 -5.566406 4.46875 -5.578125 L 6.34375 -6.453125 L 6.40625 -6.46875 C 6.445312 -6.46875 6.484375 -6.445312 6.515625 -6.40625 C 6.554688 -6.375 6.578125 -6.34375 6.578125 -6.3125 L 6.578125 -1.78125 C 6.578125 -1.414062 6.617188 -1.148438 6.703125 -0.984375 C 6.796875 -0.816406 6.9375 -0.734375 7.125 -0.734375 C 7.289062 -0.734375 7.570312 -0.804688 7.96875 -0.953125 Z M 8 -0.96875 "/></g></g></g><g fill="#f0ead6" fill-opacity="1"><g transform="translate(196.804285, 54.113546)"><g><path d="M 4.5625 -6.46875 C 4.800781 -6.46875 5.03125 -6.394531 5.25 -6.25 C 5.476562 -6.101562 5.59375 -5.929688 5.59375 -5.734375 C 5.59375 -5.585938 5.539062 -5.460938 5.4375 -5.359375 C 5.332031 -5.253906 5.191406 -5.203125 5.015625 -5.203125 C 4.910156 -5.203125 4.816406 -5.222656 4.734375 -5.265625 C 4.660156 -5.304688 4.578125 -5.375 4.484375 -5.46875 C 4.367188 -5.550781 4.269531 -5.613281 4.1875 -5.65625 C 4.113281 -5.695312 4.015625 -5.71875 3.890625 -5.71875 C 3.753906 -5.71875 3.609375 -5.664062 3.453125 -5.5625 C 3.304688 -5.457031 3.070312 -5.21875 2.75 -4.84375 L 2.75 -1.328125 C 2.75 -1.003906 2.789062 -0.765625 2.875 -0.609375 C 2.957031 -0.453125 3.101562 -0.34375 3.3125 -0.28125 C 3.53125 -0.226562 3.863281 -0.203125 4.3125 -0.203125 C 4.351562 -0.203125 4.375 -0.164062 4.375 -0.09375 C 4.375 -0.03125 4.351562 0 4.3125 0 C 3.957031 0 3.671875 -0.00390625 3.453125 -0.015625 L 2.21875 -0.03125 L 1.34375 -0.015625 C 1.1875 -0.00390625 0.976562 0 0.71875 0 C 0.6875 0 0.671875 -0.03125 0.671875 -0.09375 C 0.671875 -0.164062 0.6875 -0.203125 0.71875 -0.203125 C 1 -0.203125 1.207031 -0.226562 1.34375 -0.28125 C 1.476562 -0.34375 1.570312 -0.453125 1.625 -0.609375 C 1.675781 -0.765625 1.703125 -1.003906 1.703125 -1.328125 L 1.703125 -4.53125 C 1.703125 -4.894531 1.65625 -5.15625 1.5625 -5.3125 C 1.476562 -5.476562 1.335938 -5.5625 1.140625 -5.5625 C 0.984375 -5.5625 0.695312 -5.476562 0.28125 -5.3125 L 0.265625 -5.3125 C 0.222656 -5.3125 0.1875 -5.335938 0.15625 -5.390625 C 0.132812 -5.441406 0.148438 -5.476562 0.203125 -5.5 L 2.15625 -6.453125 L 2.25 -6.46875 C 2.363281 -6.46875 2.472656 -6.34375 2.578125 -6.09375 C 2.679688 -5.84375 2.738281 -5.523438 2.75 -5.140625 C 3.195312 -5.648438 3.550781 -6 3.8125 -6.1875 C 4.070312 -6.375 4.320312 -6.46875 4.5625 -6.46875 Z M 4.5625 -6.46875 "/></g></g></g><g fill="#f0ead6" fill-opacity="1"><g transform="translate(202.803896, 54.113546)"><g/></g></g><g fill="#f0ead6" fill-opacity="1"><g transform="translate(206.629255, 54.113546)"><g><path d="M 11.484375 -0.203125 C 11.523438 -0.203125 11.546875 -0.164062 11.546875 -0.09375 C 11.546875 -0.03125 11.523438 0 11.484375 0 C 11.273438 0 10.953125 -0.0078125 10.515625 -0.03125 C 10.078125 -0.0507812 9.753906 -0.0625 9.546875 -0.0625 C 9.296875 -0.0625 8.988281 -0.0507812 8.625 -0.03125 C 8.269531 -0.0078125 7.992188 0 7.796875 0 C 7.753906 0 7.734375 -0.03125 7.734375 -0.09375 C 7.734375 -0.164062 7.753906 -0.203125 7.796875 -0.203125 C 8.191406 -0.203125 8.472656 -0.234375 8.640625 -0.296875 C 8.816406 -0.367188 8.90625 -0.5 8.90625 -0.6875 C 8.90625 -0.851562 8.828125 -1.097656 8.671875 -1.421875 L 7.265625 -4.375 L 3.359375 -4.375 L 2.390625 -2.125 C 2.242188 -1.800781 2.171875 -1.503906 2.171875 -1.234375 C 2.171875 -0.546875 2.703125 -0.203125 3.765625 -0.203125 C 3.816406 -0.203125 3.84375 -0.164062 3.84375 -0.09375 C 3.84375 -0.03125 3.816406 0 3.765625 0 C 3.566406 0 3.28125 -0.0078125 2.90625 -0.03125 C 2.5 -0.0507812 2.140625 -0.0625 1.828125 -0.0625 C 1.554688 -0.0625 1.222656 -0.0507812 0.828125 -0.03125 C 0.503906 -0.0078125 0.226562 0 0 0 C -0.0507812 0 -0.078125 -0.03125 -0.078125 -0.09375 C -0.078125 -0.164062 -0.0507812 -0.203125 0 -0.203125 C 0.300781 -0.203125 0.554688 -0.257812 0.765625 -0.375 C 0.984375 -0.488281 1.191406 -0.691406 1.390625 -0.984375 C 1.585938 -1.273438 1.804688 -1.707031 2.046875 -2.28125 L 5.5 -10.359375 C 5.519531 -10.390625 5.5625 -10.40625 5.625 -10.40625 C 5.6875 -10.40625 5.722656 -10.390625 5.734375 -10.359375 L 9.640625 -2.234375 C 10.003906 -1.441406 10.316406 -0.90625 10.578125 -0.625 C 10.847656 -0.34375 11.148438 -0.203125 11.484375 -0.203125 Z M 3.5 -4.71875 L 7.09375 -4.71875 L 5.203125 -8.671875 Z M 3.5 -4.71875 "/></g></g></g><g fill="#f0ead6" fill-opacity="1"><g transform="translate(218.138039, 54.113546)"><g><path d="M 8 -0.96875 C 8.039062 -0.96875 8.066406 -0.9375 8.078125 -0.875 C 8.097656 -0.820312 8.09375 -0.785156 8.0625 -0.765625 L 6.078125 0.15625 L 6.015625 0.1875 C 5.910156 0.1875 5.804688 0.0546875 5.703125 -0.203125 C 5.609375 -0.472656 5.5625 -0.816406 5.5625 -1.234375 C 4.738281 -0.316406 3.890625 0.140625 3.015625 0.140625 C 2.453125 0.140625 2.015625 -0.03125 1.703125 -0.375 C 1.390625 -0.726562 1.234375 -1.222656 1.234375 -1.859375 L 1.234375 -4.375 C 1.234375 -4.78125 1.195312 -5.078125 1.125 -5.265625 C 1.050781 -5.453125 0.925781 -5.546875 0.75 -5.546875 C 0.625 -5.546875 0.445312 -5.5 0.21875 -5.40625 L 0.1875 -5.40625 C 0.144531 -5.40625 0.113281 -5.429688 0.09375 -5.484375 C 0.0820312 -5.535156 0.09375 -5.566406 0.125 -5.578125 L 2.015625 -6.453125 L 2.078125 -6.46875 C 2.109375 -6.46875 2.144531 -6.445312 2.1875 -6.40625 C 2.226562 -6.375 2.25 -6.34375 2.25 -6.3125 L 2.25 -2.46875 C 2.25 -1.21875 2.707031 -0.59375 3.625 -0.59375 C 3.957031 -0.59375 4.289062 -0.671875 4.625 -0.828125 C 4.96875 -0.992188 5.28125 -1.222656 5.5625 -1.515625 L 5.5625 -4.375 C 5.5625 -4.78125 5.519531 -5.078125 5.4375 -5.265625 C 5.363281 -5.453125 5.242188 -5.546875 5.078125 -5.546875 C 4.941406 -5.546875 4.757812 -5.5 4.53125 -5.40625 L 4.5 -5.40625 C 4.46875 -5.40625 4.445312 -5.429688 4.4375 -5.484375 C 4.425781 -5.535156 4.4375 -5.566406 4.46875 -5.578125 L 6.34375 -6.453125 L 6.40625 -6.46875 C 6.445312 -6.46875 6.484375 -6.445312 6.515625 -6.40625 C 6.554688 -6.375 6.578125 -6.34375 6.578125 -6.3125 L 6.578125 -1.78125 C 6.578125 -1.414062 6.617188 -1.148438 6.703125 -0.984375 C 6.796875 -0.816406 6.9375 -0.734375 7.125 -0.734375 C 7.289062 -0.734375 7.570312 -0.804688 7.96875 -0.953125 Z M 8 -0.96875 "/></g></g></g><g fill="#f0ead6" fill-opacity="1"><g transform="translate(226.230156, 54.113546)"><g><path d="M 5.140625 -0.90625 C 5.171875 -0.90625 5.195312 -0.878906 5.21875 -0.828125 C 5.238281 -0.773438 5.234375 -0.738281 5.203125 -0.71875 C 4.796875 -0.394531 4.425781 -0.160156 4.09375 -0.015625 C 3.769531 0.128906 3.425781 0.203125 3.0625 0.203125 C 2.601562 0.203125 2.222656 0.0976562 1.921875 -0.109375 C 1.617188 -0.328125 1.46875 -0.679688 1.46875 -1.171875 L 1.46875 -4.984375 C 1.46875 -5.242188 1.445312 -5.4375 1.40625 -5.5625 C 1.363281 -5.695312 1.285156 -5.785156 1.171875 -5.828125 C 1.054688 -5.867188 0.875 -5.890625 0.625 -5.890625 C 0.59375 -5.890625 0.578125 -5.925781 0.578125 -6 C 0.578125 -6.082031 0.59375 -6.125 0.625 -6.125 C 1.082031 -6.132812 1.453125 -6.25 1.734375 -6.46875 C 2.023438 -6.6875 2.207031 -6.988281 2.28125 -7.375 C 2.289062 -7.40625 2.332031 -7.421875 2.40625 -7.421875 C 2.476562 -7.421875 2.515625 -7.40625 2.515625 -7.375 L 2.515625 -6.140625 C 3.035156 -6.148438 3.785156 -6.203125 4.765625 -6.296875 C 4.796875 -6.296875 4.820312 -6.253906 4.84375 -6.171875 C 4.863281 -6.097656 4.875 -6.015625 4.875 -5.921875 C 4.875 -5.828125 4.859375 -5.734375 4.828125 -5.640625 C 4.796875 -5.546875 4.757812 -5.503906 4.71875 -5.515625 C 4.101562 -5.648438 3.367188 -5.734375 2.515625 -5.765625 L 2.515625 -1.734375 C 2.515625 -0.859375 2.941406 -0.421875 3.796875 -0.421875 C 4.253906 -0.421875 4.691406 -0.578125 5.109375 -0.890625 Z M 5.140625 -0.90625 "/></g></g></g><g fill="#f0ead6" fill-opacity="1"><g transform="translate(231.755683, 54.113546)"><g><path d="M 7.859375 -0.203125 C 7.890625 -0.203125 7.90625 -0.164062 7.90625 -0.09375 C 7.90625 -0.03125 7.890625 0 7.859375 0 C 7.578125 0 7.363281 -0.00390625 7.21875 -0.015625 L 6.328125 -0.03125 L 5.421875 -0.015625 C 5.265625 -0.00390625 5.0625 0 4.8125 0 C 4.78125 0 4.765625 -0.03125 4.765625 -0.09375 C 4.765625 -0.164062 4.78125 -0.203125 4.8125 -0.203125 C 5.21875 -0.203125 5.484375 -0.273438 5.609375 -0.421875 C 5.742188 -0.566406 5.8125 -0.867188 5.8125 -1.328125 L 5.8125 -3.875 C 5.8125 -4.519531 5.691406 -4.992188 5.453125 -5.296875 C 5.210938 -5.609375 4.835938 -5.765625 4.328125 -5.765625 C 4.003906 -5.765625 3.675781 -5.675781 3.34375 -5.5 C 3.007812 -5.332031 2.707031 -5.101562 2.4375 -4.8125 L 2.4375 -1.328125 C 2.4375 -0.867188 2.5 -0.566406 2.625 -0.421875 C 2.757812 -0.273438 3.035156 -0.203125 3.453125 -0.203125 C 3.484375 -0.203125 3.5 -0.164062 3.5 -0.09375 C 3.5 -0.03125 3.484375 0 3.453125 0 C 3.179688 0 2.96875 -0.00390625 2.8125 -0.015625 L 1.9375 -0.03125 L 1.015625 -0.015625 C 0.859375 -0.00390625 0.65625 0 0.40625 0 C 0.375 0 0.359375 -0.03125 0.359375 -0.09375 C 0.359375 -0.164062 0.375 -0.203125 0.40625 -0.203125 C 0.8125 -0.203125 1.078125 -0.273438 1.203125 -0.421875 C 1.335938 -0.566406 1.40625 -0.867188 1.40625 -1.328125 L 1.40625 -9.75 C 1.40625 -10.144531 1.363281 -10.425781 1.28125 -10.59375 C 1.207031 -10.769531 1.082031 -10.859375 0.90625 -10.859375 C 0.75 -10.859375 0.507812 -10.785156 0.1875 -10.640625 L 0.15625 -10.640625 C 0.113281 -10.640625 0.078125 -10.664062 0.046875 -10.71875 C 0.0234375 -10.769531 0.0351562 -10.804688 0.078125 -10.828125 L 2.21875 -11.859375 L 2.28125 -11.859375 C 2.320312 -11.859375 2.359375 -11.84375 2.390625 -11.8125 C 2.421875 -11.78125 2.4375 -11.75 2.4375 -11.71875 L 2.4375 -5.109375 C 3.226562 -6.035156 4.066406 -6.5 4.953125 -6.5 C 5.554688 -6.5 6.019531 -6.320312 6.34375 -5.96875 C 6.675781 -5.625 6.84375 -5.128906 6.84375 -4.484375 L 6.84375 -1.328125 C 6.84375 -0.867188 6.90625 -0.566406 7.03125 -0.421875 C 7.164062 -0.273438 7.441406 -0.203125 7.859375 -0.203125 Z M 7.859375 -0.203125 "/></g></g></g><g fill="#f0ead6" fill-opacity="1"><g transform="translate(239.929534, 54.113546)"><g><path d="M 3.796875 0.21875 C 3.148438 0.21875 2.582031 0.0625 2.09375 -0.25 C 1.613281 -0.5625 1.238281 -0.984375 0.96875 -1.515625 C 0.707031 -2.046875 0.578125 -2.617188 0.578125 -3.234375 C 0.578125 -3.941406 0.75 -4.546875 1.09375 -5.046875 C 1.445312 -5.546875 1.890625 -5.914062 2.421875 -6.15625 C 2.960938 -6.40625 3.519531 -6.53125 4.09375 -6.53125 C 4.738281 -6.53125 5.300781 -6.367188 5.78125 -6.046875 C 6.269531 -5.734375 6.644531 -5.316406 6.90625 -4.796875 C 7.164062 -4.285156 7.296875 -3.738281 7.296875 -3.15625 C 7.296875 -2.476562 7.132812 -1.882812 6.8125 -1.375 C 6.5 -0.875 6.078125 -0.484375 5.546875 -0.203125 C 5.015625 0.078125 4.429688 0.21875 3.796875 0.21875 Z M 4.265625 -0.09375 C 4.835938 -0.09375 5.273438 -0.304688 5.578125 -0.734375 C 5.890625 -1.160156 6.046875 -1.8125 6.046875 -2.6875 C 6.046875 -3.375 5.9375 -3.984375 5.71875 -4.515625 C 5.507812 -5.046875 5.210938 -5.457031 4.828125 -5.75 C 4.441406 -6.050781 4.015625 -6.203125 3.546875 -6.203125 C 2.992188 -6.203125 2.5625 -5.992188 2.25 -5.578125 C 1.945312 -5.160156 1.796875 -4.554688 1.796875 -3.765625 C 1.796875 -3.085938 1.898438 -2.46875 2.109375 -1.90625 C 2.328125 -1.34375 2.617188 -0.898438 2.984375 -0.578125 C 3.359375 -0.253906 3.785156 -0.09375 4.265625 -0.09375 Z M 4.265625 -0.09375 "/></g></g></g><g fill="#f0ead6" fill-opacity="1"><g transform="translate(247.79278, 54.113546)"><g><path d="M 4.5625 -6.46875 C 4.800781 -6.46875 5.03125 -6.394531 5.25 -6.25 C 5.476562 -6.101562 5.59375 -5.929688 5.59375 -5.734375 C 5.59375 -5.585938 5.539062 -5.460938 5.4375 -5.359375 C 5.332031 -5.253906 5.191406 -5.203125 5.015625 -5.203125 C 4.910156 -5.203125 4.816406 -5.222656 4.734375 -5.265625 C 4.660156 -5.304688 4.578125 -5.375 4.484375 -5.46875 C 4.367188 -5.550781 4.269531 -5.613281 4.1875 -5.65625 C 4.113281 -5.695312 4.015625 -5.71875 3.890625 -5.71875 C 3.753906 -5.71875 3.609375 -5.664062 3.453125 -5.5625 C 3.304688 -5.457031 3.070312 -5.21875 2.75 -4.84375 L 2.75 -1.328125 C 2.75 -1.003906 2.789062 -0.765625 2.875 -0.609375 C 2.957031 -0.453125 3.101562 -0.34375 3.3125 -0.28125 C 3.53125 -0.226562 3.863281 -0.203125 4.3125 -0.203125 C 4.351562 -0.203125 4.375 -0.164062 4.375 -0.09375 C 4.375 -0.03125 4.351562 0 4.3125 0 C 3.957031 0 3.671875 -0.00390625 3.453125 -0.015625 L 2.21875 -0.03125 L 1.34375 -0.015625 C 1.1875 -0.00390625 0.976562 0 0.71875 0 C 0.6875 0 0.671875 -0.03125 0.671875 -0.09375 C 0.671875 -0.164062 0.6875 -0.203125 0.71875 -0.203125 C 1 -0.203125 1.207031 -0.226562 1.34375 -0.28125 C 1.476562 -0.34375 1.570312 -0.453125 1.625 -0.609375 C 1.675781 -0.765625 1.703125 -1.003906 1.703125 -1.328125 L 1.703125 -4.53125 C 1.703125 -4.894531 1.65625 -5.15625 1.5625 -5.3125 C 1.476562 -5.476562 1.335938 -5.5625 1.140625 -5.5625 C 0.984375 -5.5625 0.695312 -5.476562 0.28125 -5.3125 L 0.265625 -5.3125 C 0.222656 -5.3125 0.1875 -5.335938 0.15625 -5.390625 C 0.132812 -5.441406 0.148438 -5.476562 0.203125 -5.5 L 2.15625 -6.453125 L 2.25 -6.46875 C 2.363281 -6.46875 2.472656 -6.34375 2.578125 -6.09375 C 2.679688 -5.84375 2.738281 -5.523438 2.75 -5.140625 C 3.195312 -5.648438 3.550781 -6 3.8125 -6.1875 C 4.070312 -6.375 4.320312 -6.46875 4.5625 -6.46875 Z M 4.5625 -6.46875 "/></g></g></g><g fill="#f0ead6" fill-opacity="1"><g transform="translate(253.79239, 54.113546)"><g><path d="M 2.234375 -8.328125 C 1.992188 -8.328125 1.804688 -8.390625 1.671875 -8.515625 C 1.535156 -8.648438 1.46875 -8.835938 1.46875 -9.078125 C 1.46875 -9.296875 1.535156 -9.46875 1.671875 -9.59375 C 1.804688 -9.726562 1.992188 -9.796875 2.234375 -9.796875 C 2.460938 -9.796875 2.644531 -9.726562 2.78125 -9.59375 C 2.914062 -9.46875 2.984375 -9.296875 2.984375 -9.078125 C 2.984375 -8.835938 2.914062 -8.648438 2.78125 -8.515625 C 2.644531 -8.390625 2.460938 -8.328125 2.234375 -8.328125 Z M 0.828125 0 C 0.796875 0 0.78125 -0.03125 0.78125 -0.09375 C 0.78125 -0.164062 0.796875 -0.203125 0.828125 -0.203125 C 1.234375 -0.203125 1.5 -0.273438 1.625 -0.421875 C 1.757812 -0.566406 1.828125 -0.867188 1.828125 -1.328125 L 1.828125 -4.375 C 1.828125 -4.75 1.789062 -5.023438 1.71875 -5.203125 C 1.644531 -5.378906 1.507812 -5.46875 1.3125 -5.46875 C 1.125 -5.46875 0.882812 -5.390625 0.59375 -5.234375 L 0.578125 -5.234375 C 0.523438 -5.234375 0.488281 -5.257812 0.46875 -5.3125 C 0.445312 -5.375 0.457031 -5.414062 0.5 -5.4375 L 2.6875 -6.453125 L 2.75 -6.46875 C 2.78125 -6.46875 2.8125 -6.445312 2.84375 -6.40625 C 2.882812 -6.375 2.90625 -6.34375 2.90625 -6.3125 C 2.90625 -6.238281 2.898438 -6.019531 2.890625 -5.65625 C 2.878906 -5.300781 2.875 -4.878906 2.875 -4.390625 L 2.875 -1.328125 C 2.875 -1.003906 2.898438 -0.765625 2.953125 -0.609375 C 3.003906 -0.453125 3.097656 -0.34375 3.234375 -0.28125 C 3.378906 -0.226562 3.59375 -0.203125 3.875 -0.203125 C 3.90625 -0.203125 3.921875 -0.164062 3.921875 -0.09375 C 3.921875 -0.03125 3.90625 0 3.875 0 C 3.601562 0 3.390625 -0.00390625 3.234375 -0.015625 L 2.359375 -0.03125 L 1.4375 -0.015625 C 1.28125 -0.00390625 1.078125 0 0.828125 0 Z M 0.828125 0 "/></g></g></g><g fill="#f0ead6" fill-opacity="1"><g transform="translate(258.222615, 54.113546)"><g><path d="M 5.140625 -0.90625 C 5.171875 -0.90625 5.195312 -0.878906 5.21875 -0.828125 C 5.238281 -0.773438 5.234375 -0.738281 5.203125 -0.71875 C 4.796875 -0.394531 4.425781 -0.160156 4.09375 -0.015625 C 3.769531 0.128906 3.425781 0.203125 3.0625 0.203125 C 2.601562 0.203125 2.222656 0.0976562 1.921875 -0.109375 C 1.617188 -0.328125 1.46875 -0.679688 1.46875 -1.171875 L 1.46875 -4.984375 C 1.46875 -5.242188 1.445312 -5.4375 1.40625 -5.5625 C 1.363281 -5.695312 1.285156 -5.785156 1.171875 -5.828125 C 1.054688 -5.867188 0.875 -5.890625 0.625 -5.890625 C 0.59375 -5.890625 0.578125 -5.925781 0.578125 -6 C 0.578125 -6.082031 0.59375 -6.125 0.625 -6.125 C 1.082031 -6.132812 1.453125 -6.25 1.734375 -6.46875 C 2.023438 -6.6875 2.207031 -6.988281 2.28125 -7.375 C 2.289062 -7.40625 2.332031 -7.421875 2.40625 -7.421875 C 2.476562 -7.421875 2.515625 -7.40625 2.515625 -7.375 L 2.515625 -6.140625 C 3.035156 -6.148438 3.785156 -6.203125 4.765625 -6.296875 C 4.796875 -6.296875 4.820312 -6.253906 4.84375 -6.171875 C 4.863281 -6.097656 4.875 -6.015625 4.875 -5.921875 C 4.875 -5.828125 4.859375 -5.734375 4.828125 -5.640625 C 4.796875 -5.546875 4.757812 -5.503906 4.71875 -5.515625 C 4.101562 -5.648438 3.367188 -5.734375 2.515625 -5.765625 L 2.515625 -1.734375 C 2.515625 -0.859375 2.941406 -0.421875 3.796875 -0.421875 C 4.253906 -0.421875 4.691406 -0.578125 5.109375 -0.890625 Z M 5.140625 -0.90625 "/></g></g></g><g fill="#f0ead6" fill-opacity="1"><g transform="translate(263.748143, 54.113546)"><g><path d="M 7.078125 -6.3125 C 7.109375 -6.3125 7.125 -6.28125 7.125 -6.21875 C 7.125 -6.15625 7.109375 -6.125 7.078125 -6.125 C 6.785156 -6.125 6.535156 -6.019531 6.328125 -5.8125 C 6.128906 -5.601562 5.941406 -5.257812 5.765625 -4.78125 L 3.796875 0.453125 C 3.390625 1.515625 3.007812 2.34375 2.65625 2.9375 C 2.300781 3.53125 1.9375 3.953125 1.5625 4.203125 C 1.1875 4.460938 0.757812 4.59375 0.28125 4.59375 C 0.0195312 4.59375 -0.1875 4.535156 -0.34375 4.421875 C -0.507812 4.304688 -0.59375 4.140625 -0.59375 3.921875 C -0.59375 3.753906 -0.535156 3.625 -0.421875 3.53125 C -0.304688 3.4375 -0.171875 3.390625 -0.015625 3.390625 C 0.128906 3.390625 0.242188 3.40625 0.328125 3.4375 C 0.421875 3.476562 0.519531 3.53125 0.625 3.59375 C 0.644531 3.601562 0.707031 3.632812 0.8125 3.6875 C 0.914062 3.75 1.039062 3.78125 1.1875 3.78125 C 1.457031 3.78125 1.707031 3.664062 1.9375 3.4375 C 2.164062 3.21875 2.410156 2.847656 2.671875 2.328125 C 2.929688 1.804688 3.238281 1.078125 3.59375 0.140625 L 1.078125 -4.953125 C 0.828125 -5.429688 0.632812 -5.742188 0.5 -5.890625 C 0.375 -6.046875 0.207031 -6.125 0 -6.125 C -0.0195312 -6.125 -0.03125 -6.15625 -0.03125 -6.21875 C -0.03125 -6.28125 -0.0195312 -6.3125 0 -6.3125 C 0.25 -6.3125 0.441406 -6.304688 0.578125 -6.296875 L 1.140625 -6.28125 L 2.203125 -6.296875 C 2.367188 -6.304688 2.585938 -6.3125 2.859375 -6.3125 C 2.878906 -6.3125 2.890625 -6.28125 2.890625 -6.21875 C 2.890625 -6.15625 2.878906 -6.125 2.859375 -6.125 C 2.554688 -6.125 2.328125 -6.09375 2.171875 -6.03125 C 2.015625 -5.976562 1.9375 -5.890625 1.9375 -5.765625 C 1.9375 -5.703125 1.960938 -5.609375 2.015625 -5.484375 L 4.125 -1.125 L 5.375 -4.75 C 5.46875 -5.007812 5.515625 -5.21875 5.515625 -5.375 C 5.515625 -5.644531 5.414062 -5.835938 5.21875 -5.953125 C 5.03125 -6.066406 4.722656 -6.125 4.296875 -6.125 C 4.273438 -6.125 4.265625 -6.15625 4.265625 -6.21875 C 4.265625 -6.28125 4.273438 -6.3125 4.296875 -6.3125 C 4.597656 -6.3125 4.820312 -6.304688 4.96875 -6.296875 L 5.953125 -6.28125 L 6.546875 -6.296875 C 6.660156 -6.304688 6.835938 -6.3125 7.078125 -6.3125 Z M 7.078125 -6.3125 "/></g></g></g></svg>